<?xml version="1.0" encoding="UTF-8" standalone="no"?>
<!DOCTYPE svg PUBLIC "-//W3C//DTD SVG 1.1//EN"
 "http://www.w3.org/Graphics/SVG/1.1/DTD/svg11.dtd">
<!-- Generated by graphviz version 2.42.4 (0)
 -->
<!-- Title: G Pages: 1 -->
<svg width="3076pt" height="1126pt"
 viewBox="0.00 0.00 3076.40 1126.40" xmlns="http://www.w3.org/2000/svg" xmlns:xlink="http://www.w3.org/1999/xlink">
<g id="graph0" class="graph" transform="scale(1 1) rotate(0) translate(25.2 1101.2)">
<title>G</title>
<polygon fill="#fcfcfd" stroke="transparent" points="-25.2,25.2 -25.2,-1101.2 3051.2,-1101.2 3051.2,25.2 -25.2,25.2"/>
<g id="clust1" class="cluster">
<title>cluster_foundation</title>
<path fill="#fcfcfd" stroke="#c7d2fe" stroke-width="1.4" d="M20,-186C20,-186 665,-186 665,-186 671,-186 677,-192 677,-198 677,-198 677,-980 677,-980 677,-986 671,-992 665,-992 665,-992 20,-992 20,-992 14,-992 8,-986 8,-980 8,-980 8,-198 8,-198 8,-192 14,-186 20,-186"/>
</g>
<g id="clust2" class="cluster">
<title>cluster_trigvec</title>
<path fill="#fcfcfd" stroke="#f7c7d8" stroke-width="1.4" d="M697,-101.5C697,-101.5 1002,-101.5 1002,-101.5 1008,-101.5 1014,-107.5 1014,-113.5 1014,-113.5 1014,-980 1014,-980 1014,-986 1008,-992 1002,-992 1002,-992 697,-992 697,-992 691,-992 685,-986 685,-980 685,-980 685,-113.5 685,-113.5 685,-107.5 691,-101.5 697,-101.5"/>
</g>
<g id="clust3" class="cluster">
<title>cluster_seqineq</title>
<path fill="#fcfcfd" stroke="#bdecd8" stroke-width="1.4" d="M1034,-283.5C1034,-283.5 1616,-283.5 1616,-283.5 1622,-283.5 1628,-289.5 1628,-295.5 1628,-295.5 1628,-980 1628,-980 1628,-986 1622,-992 1616,-992 1616,-992 1034,-992 1034,-992 1028,-992 1022,-986 1022,-980 1022,-980 1022,-295.5 1022,-295.5 1022,-289.5 1028,-283.5 1034,-283.5"/>
</g>
<g id="clust4" class="cluster">
<title>cluster_analytic</title>
<path fill="#fcfcfd" stroke="#f7d9bf" stroke-width="1.4" d="M1648,-95C1648,-95 1816,-95 1816,-95 1822,-95 1828,-101 1828,-107 1828,-107 1828,-980 1828,-980 1828,-986 1822,-992 1816,-992 1816,-992 1648,-992 1648,-992 1642,-992 1636,-986 1636,-980 1636,-980 1636,-107 1636,-107 1636,-101 1642,-95 1648,-95"/>
</g>
<g id="clust5" class="cluster">
<title>cluster_solid</title>
<path fill="#fcfcfd" stroke="#d9e8c3" stroke-width="1.4" d="M1848,-95C1848,-95 2040,-95 2040,-95 2046,-95 2052,-101 2052,-107 2052,-107 2052,-980 2052,-980 2052,-986 2046,-992 2040,-992 2040,-992 1848,-992 1848,-992 1842,-992 1836,-986 1836,-980 1836,-980 1836,-107 1836,-107 1836,-101 1842,-95 1848,-95"/>
</g>
<g id="clust6" class="cluster">
<title>cluster_statprob</title>
<path fill="#fcfcfd" stroke="#f6e28f" stroke-width="1.4" d="M2072,-95C2072,-95 2300,-95 2300,-95 2306,-95 2312,-101 2312,-107 2312,-107 2312,-980 2312,-980 2312,-986 2306,-992 2300,-992 2300,-992 2072,-992 2072,-992 2066,-992 2060,-986 2060,-980 2060,-980 2060,-107 2060,-107 2060,-101 2066,-95 2072,-95"/>
</g>
<g id="clust7" class="cluster">
<title>cluster_method</title>
<path fill="#fcfcfd" stroke="#d6cbff" stroke-width="1.4" d="M2332,-95C2332,-95 3006,-95 3006,-95 3012,-95 3018,-101 3018,-107 3018,-107 3018,-980 3018,-980 3018,-986 3012,-992 3006,-992 3006,-992 2332,-992 2332,-992 2326,-992 2320,-986 2320,-980 2320,-980 2320,-107 2320,-107 2320,-101 2326,-95 2332,-95"/>
</g>
<!-- root&#45;&gt;f0 -->
<g id="edge76" class="edge">
<title>root&#45;&gt;f0</title>
<path fill="none" stroke="#738496" d="M1573.94,-1058C1250.64,-1058 544,-1058 544,-1058 544,-1058 544,-991.18 544,-991.18"/>
<polygon fill="#738496" stroke="#738496" points="546.45,-991.18 544,-984.18 541.55,-991.18 546.45,-991.18"/>
</g>
<!-- root&#45;&gt;t0 -->
<g id="edge77" class="edge">
<title>root&#45;&gt;t0</title>
<path fill="none" stroke="#738496" d="M1573.81,-1041C1330.2,-1041 891,-1041 891,-1041 891,-1041 891,-991.16 891,-991.16"/>
<polygon fill="#738496" stroke="#738496" points="893.45,-991.16 891,-984.16 888.55,-991.16 893.45,-991.16"/>
</g>
<!-- root&#45;&gt;q0 -->
<g id="edge78" class="edge">
<title>root&#45;&gt;q0</title>
<path fill="none" stroke="#738496" d="M1594,-1023.88C1594,-1023.88 1594,-991.11 1594,-991.11"/>
<polygon fill="#738496" stroke="#738496" points="1596.45,-991.11 1594,-984.11 1591.55,-991.11 1596.45,-991.11"/>
</g>
<!-- root&#45;&gt;g0 -->
<g id="edge79" class="edge">
<title>root&#45;&gt;g0</title>
<path fill="none" stroke="#738496" d="M1732,-1023.88C1732,-1023.88 1732,-991.11 1732,-991.11"/>
<polygon fill="#738496" stroke="#738496" points="1734.45,-991.11 1732,-984.11 1729.55,-991.11 1734.45,-991.11"/>
</g>
<!-- root&#45;&gt;s0 -->
<g id="edge80" class="edge">
<title>root&#45;&gt;s0</title>
<path fill="none" stroke="#738496" d="M1871,-1023.88C1871,-1023.88 1871,-991.11 1871,-991.11"/>
<polygon fill="#738496" stroke="#738496" points="1873.45,-991.11 1871,-984.11 1868.55,-991.11 1873.45,-991.11"/>
</g>
<!-- root&#45;&gt;p0 -->
<g id="edge81" class="edge">
<title>root&#45;&gt;p0</title>
<path fill="none" stroke="#738496" d="M1890.11,-1041C2006.3,-1041 2144,-1041 2144,-1041 2144,-1041 2144,-991.16 2144,-991.16"/>
<polygon fill="#738496" stroke="#738496" points="2146.45,-991.16 2144,-984.16 2141.55,-991.16 2146.45,-991.16"/>
</g>
<!-- root&#45;&gt;m0 -->
<g id="edge82" class="edge">
<title>root&#45;&gt;m0</title>
<path fill="none" stroke="#738496" d="M1890.29,-1058C2116.44,-1058 2505,-1058 2505,-1058 2505,-1058 2505,-991.18 2505,-991.18"/>
<polygon fill="#738496" stroke="#738496" points="2507.45,-991.18 2505,-984.18 2502.55,-991.18 2507.45,-991.18"/>
</g>
<!-- f0&#45;&gt;set1 -->
<g id="edge1" class="edge">
<title>f0&#45;&gt;set1</title>
<path fill="none" stroke="#738496" d="M434.25,-947.79C434.25,-947.79 434.25,-915.03 434.25,-915.03"/>
<polygon fill="#738496" stroke="#738496" points="436.7,-915.03 434.25,-908.03 431.8,-915.03 436.7,-915.03"/>
</g>
<!-- f0&#45;&gt;map1 -->
<g id="edge2" class="edge">
<title>f0&#45;&gt;map1</title>
<path fill="none" stroke="#738496" d="M544,-947.79C544,-947.79 544,-908.69 544,-908.69"/>
<polygon fill="#738496" stroke="#738496" points="546.45,-908.69 544,-901.69 541.55,-908.69 546.45,-908.69"/>
</g>
<!-- set1&#45;&gt;func1 -->
<g id="edge3" class="edge">
<title>set1&#45;&gt;func1</title>
<path fill="none" stroke="#738496" d="M369,-843.8C369,-843.8 369,-811.18 369,-811.18"/>
<polygon fill="#738496" stroke="#738496" points="371.45,-811.18 369,-804.18 366.55,-811.18 371.45,-811.18"/>
</g>
<!-- map1&#45;&gt;func1 -->
<g id="edge4" class="edge">
<title>map1&#45;&gt;func1</title>
<path fill="none" stroke="#738496" d="M475.5,-850.25C475.5,-821.22 475.5,-778 475.5,-778 475.5,-778 474.8,-778 474.8,-778"/>
<polygon fill="#738496" stroke="#738496" points="475.51,-775.55 468.51,-778 475.51,-780.45 475.51,-775.55"/>
</g>
<!-- func1&#45;&gt;func2 -->
<g id="edge5" class="edge">
<title>func1&#45;&gt;func2</title>
<path fill="none" stroke="#738496" d="M269.36,-778C220.98,-778 173.17,-778 173.17,-778 173.17,-778 173.17,-720.19 173.17,-720.19"/>
<polygon fill="#738496" stroke="#738496" points="175.62,-720.19 173.17,-713.19 170.72,-720.19 175.62,-720.19"/>
</g>
<!-- func1&#45;&gt;func3 -->
<g id="edge6" class="edge">
<title>func1&#45;&gt;func3</title>
<path fill="none" stroke="#738496" d="M367,-752.67C367,-752.67 367,-720.08 367,-720.08"/>
<polygon fill="#738496" stroke="#738496" points="369.45,-720.08 367,-713.08 364.55,-720.08 369.45,-720.08"/>
</g>
<!-- func1&#45;&gt;func4 -->
<g id="edge7" class="edge">
<title>func1&#45;&gt;func4</title>
<path fill="none" stroke="#738496" d="M464.5,-752.52C464.5,-725.47 464.5,-687 464.5,-687 464.5,-687 475.41,-687 475.41,-687"/>
<polygon fill="#738496" stroke="#738496" points="475.41,-689.45 482.41,-687 475.41,-684.55 475.41,-689.45"/>
</g>
<!-- func1&#45;&gt;seq1 -->
<g id="edge83" class="edge">
<title>func1&#45;&gt;seq1</title>
<path fill="none" stroke="#95a3b3" stroke-dasharray="5,2" d="M457.5,-804.39C457.5,-811.36 457.5,-817 457.5,-817 457.5,-817 1270.83,-817 1270.83,-817 1270.83,-817 1270.83,-843.29 1270.83,-843.29"/>
<polygon fill="#95a3b3" stroke="#95a3b3" points="1268.38,-843.29 1270.83,-850.29 1273.28,-843.29 1268.38,-843.29"/>
</g>
<!-- func2&#45;&gt;der1 -->
<g id="edge8" class="edge">
<title>func2&#45;&gt;der1</title>
<path fill="none" stroke="#738496" d="M173.17,-661.52C173.17,-634.47 173.17,-596 173.17,-596 173.17,-596 299.48,-596 299.48,-596"/>
<polygon fill="#738496" stroke="#738496" points="299.48,-598.45 306.48,-596 299.48,-593.55 299.48,-598.45"/>
</g>
<!-- func2&#45;&gt;tri5 -->
<g id="edge84" class="edge">
<title>func2&#45;&gt;tri5</title>
<path fill="none" stroke="#95a3b3" stroke-dasharray="5,2" d="M94.83,-661.82C94.83,-651.5 94.83,-642 94.83,-642 94.83,-642 703.5,-642 703.5,-642 703.5,-642 703.5,-538.17 703.5,-538.17"/>
<polygon fill="#95a3b3" stroke="#95a3b3" points="705.95,-538.17 703.5,-531.17 701.05,-538.17 705.95,-538.17"/>
</g>
<!-- func2&#45;&gt;line1 -->
<g id="edge85" class="edge">
<title>func2&#45;&gt;line1</title>
<path fill="none" stroke="#95a3b3" stroke-dasharray="5,2" d="M94.83,-713.31C94.83,-754.37 94.83,-830 94.83,-830 94.83,-830 1710.83,-830 1710.83,-830 1710.83,-830 1710.83,-849.76 1710.83,-849.76"/>
<polygon fill="#95a3b3" stroke="#95a3b3" points="1708.38,-849.76 1710.83,-856.76 1713.28,-849.76 1708.38,-849.76"/>
</g>
<!-- func3&#45;&gt;der1 -->
<g id="edge9" class="edge">
<title>func3&#45;&gt;der1</title>
<path fill="none" stroke="#738496" d="M376,-661.67C376,-661.67 376,-629.08 376,-629.08"/>
<polygon fill="#738496" stroke="#738496" points="378.45,-629.08 376,-622.08 373.55,-629.08 378.45,-629.08"/>
</g>
<!-- func4&#45;&gt;der1 -->
<g id="edge10" class="edge">
<title>func4&#45;&gt;der1</title>
<path fill="none" stroke="#738496" d="M522,-661.52C522,-634.47 522,-596 522,-596 522,-596 452.58,-596 452.58,-596"/>
<polygon fill="#738496" stroke="#738496" points="452.58,-593.55 445.58,-596 452.58,-598.45 452.58,-593.55"/>
</g>
<!-- der1&#45;&gt;der2 -->
<g id="edge11" class="edge">
<title>der1&#45;&gt;der2</title>
<path fill="none" stroke="#738496" d="M428,-570.67C428,-570.67 428,-538.08 428,-538.08"/>
<polygon fill="#738496" stroke="#738496" points="430.45,-538.08 428,-531.08 425.55,-538.08 430.45,-538.08"/>
</g>
<!-- der2&#45;&gt;der3 -->
<g id="edge12" class="edge">
<title>der2&#45;&gt;der3</title>
<path fill="none" stroke="#738496" d="M510.5,-479.67C510.5,-479.67 510.5,-447.08 510.5,-447.08"/>
<polygon fill="#738496" stroke="#738496" points="512.95,-447.08 510.5,-440.08 508.05,-447.08 512.95,-447.08"/>
</g>
<!-- der3&#45;&gt;int1 -->
<g id="edge13" class="edge">
<title>der3&#45;&gt;int1</title>
<path fill="none" stroke="#738496" d="M561.83,-388.61C561.83,-388.61 561.83,-252.19 561.83,-252.19"/>
<polygon fill="#738496" stroke="#738496" points="564.28,-252.19 561.83,-245.19 559.38,-252.19 564.28,-252.19"/>
</g>
<!-- der3&#45;&gt;opt1 -->
<g id="edge86" class="edge">
<title>der3&#45;&gt;opt1</title>
<path fill="none" stroke="#95a3b3" stroke-dasharray="5,2" d="M592.17,-388.88C592.17,-360 592.17,-317 592.17,-317 592.17,-317 1487.48,-317 1487.48,-317"/>
<polygon fill="#95a3b3" stroke="#95a3b3" points="1487.48,-319.45 1494.48,-317 1487.48,-314.55 1487.48,-319.45"/>
</g>
<!-- int1&#45;&gt;summary -->
<g id="edge92" class="edge">
<title>int1&#45;&gt;summary</title>
<path fill="none" stroke="#738496" d="M595,-193.96C595,-140.34 595,-21 595,-21 595,-21 1669.36,-21 1669.36,-21"/>
<polygon fill="#738496" stroke="#738496" points="1669.36,-23.45 1676.36,-21 1669.36,-18.55 1669.36,-23.45"/>
</g>
<!-- t0&#45;&gt;tri1 -->
<g id="edge14" class="edge">
<title>t0&#45;&gt;tri1</title>
<path fill="none" stroke="#738496" d="M810.5,-947.79C810.5,-947.79 810.5,-902.12 810.5,-902.12"/>
<polygon fill="#738496" stroke="#738496" points="812.95,-902.12 810.5,-895.12 808.05,-902.12 812.95,-902.12"/>
</g>
<!-- t0&#45;&gt;vec1 -->
<g id="edge20" class="edge">
<title>t0&#45;&gt;vec1</title>
<path fill="none" stroke="#738496" d="M936,-947.79C936,-947.79 936,-908.69 936,-908.69"/>
<polygon fill="#738496" stroke="#738496" points="938.45,-908.69 936,-901.69 933.55,-908.69 938.45,-908.69"/>
</g>
<!-- tri1&#45;&gt;tri2 -->
<g id="edge15" class="edge">
<title>tri1&#45;&gt;tri2</title>
<path fill="none" stroke="#738496" d="M769,-856.74C769,-856.74 769,-811.01 769,-811.01"/>
<polygon fill="#738496" stroke="#738496" points="771.45,-811.01 769,-804.01 766.55,-811.01 771.45,-811.01"/>
</g>
<!-- tri2&#45;&gt;tri3 -->
<g id="edge16" class="edge">
<title>tri2&#45;&gt;tri3</title>
<path fill="none" stroke="#738496" d="M769,-752.67C769,-752.67 769,-720.08 769,-720.08"/>
<polygon fill="#738496" stroke="#738496" points="771.45,-720.08 769,-713.08 766.55,-720.08 771.45,-720.08"/>
</g>
<!-- tri3&#45;&gt;tri4 -->
<g id="edge17" class="edge">
<title>tri3&#45;&gt;tri4</title>
<path fill="none" stroke="#738496" d="M771,-661.67C771,-661.67 771,-629.08 771,-629.08"/>
<polygon fill="#738496" stroke="#738496" points="773.45,-629.08 771,-622.08 768.55,-629.08 773.45,-629.08"/>
</g>
<!-- tri3&#45;&gt;solve1 -->
<g id="edge25" class="edge">
<title>tri3&#45;&gt;solve1</title>
<path fill="none" stroke="#738496" d="M844.75,-687C853.43,-687 859.25,-687 859.25,-687 859.25,-687 859.25,-629.19 859.25,-629.19"/>
<polygon fill="#738496" stroke="#738496" points="861.7,-629.19 859.25,-622.19 856.8,-629.19 861.7,-629.19"/>
</g>
<!-- tri4&#45;&gt;tri5 -->
<g id="edge18" class="edge">
<title>tri4&#45;&gt;tri5</title>
<path fill="none" stroke="#738496" d="M771,-570.67C771,-570.67 771,-538.08 771,-538.08"/>
<polygon fill="#738496" stroke="#738496" points="773.45,-538.08 771,-531.08 768.55,-538.08 773.45,-538.08"/>
</g>
<!-- tri5&#45;&gt;tri6 -->
<g id="edge19" class="edge">
<title>tri5&#45;&gt;tri6</title>
<path fill="none" stroke="#738496" d="M811,-479.67C811,-479.67 811,-447.08 811,-447.08"/>
<polygon fill="#738496" stroke="#738496" points="813.45,-447.08 811,-440.08 808.55,-447.08 813.45,-447.08"/>
</g>
<!-- vec1&#45;&gt;vec2 -->
<g id="edge21" class="edge">
<title>vec1&#45;&gt;vec2</title>
<path fill="none" stroke="#738496" d="M936,-850.38C936,-850.38 936,-811.28 936,-811.28"/>
<polygon fill="#738496" stroke="#738496" points="938.45,-811.28 936,-804.28 933.55,-811.28 938.45,-811.28"/>
</g>
<!-- vec2&#45;&gt;vec3 -->
<g id="edge22" class="edge">
<title>vec2&#45;&gt;vec3</title>
<path fill="none" stroke="#738496" d="M902.25,-752.67C902.25,-752.67 902.25,-720.08 902.25,-720.08"/>
<polygon fill="#738496" stroke="#738496" points="904.7,-720.08 902.25,-713.08 899.8,-720.08 904.7,-720.08"/>
</g>
<!-- vec2&#45;&gt;spacev1 -->
<g id="edge90" class="edge">
<title>vec2&#45;&gt;spacev1</title>
<path fill="none" stroke="#95a3b3" stroke-dasharray="5,2" d="M936,-752.82C936,-745.27 936,-739 936,-739 936,-739 1832,-739 1832,-739 1832,-739 1832,-505 1832,-505 1832,-505 1854.45,-505 1854.45,-505"/>
<polygon fill="#95a3b3" stroke="#95a3b3" points="1854.45,-507.45 1861.45,-505 1854.45,-502.55 1854.45,-507.45"/>
</g>
<!-- vec3&#45;&gt;solve1 -->
<g id="edge23" class="edge">
<title>vec3&#45;&gt;solve1</title>
<path fill="none" stroke="#738496" d="M936,-661.67C936,-661.67 936,-629.08 936,-629.08"/>
<polygon fill="#738496" stroke="#738496" points="938.45,-629.08 936,-622.08 933.55,-629.08 938.45,-629.08"/>
</g>
<!-- vec3&#45;&gt;line3 -->
<g id="edge89" class="edge">
<title>vec3&#45;&gt;line3</title>
<path fill="none" stroke="#95a3b3" stroke-dasharray="5,2" d="M969.75,-713.39C969.75,-720.36 969.75,-726 969.75,-726 969.75,-726 1651,-726 1651,-726 1651,-726 1651,-720.39 1651,-720.39"/>
<polygon fill="#95a3b3" stroke="#95a3b3" points="1653.45,-720.39 1651,-713.39 1648.55,-720.39 1653.45,-720.39"/>
</g>
<!-- solve1&#45;&gt;solve2 -->
<g id="edge24" class="edge">
<title>solve1&#45;&gt;solve2</title>
<path fill="none" stroke="#738496" d="M967,-570.67C967,-570.67 967,-154.52 967,-154.52"/>
<polygon fill="#738496" stroke="#738496" points="969.45,-154.52 967,-147.52 964.55,-154.52 969.45,-154.52"/>
</g>
<!-- solve2&#45;&gt;summary -->
<g id="edge93" class="edge">
<title>solve2&#45;&gt;summary</title>
<path fill="none" stroke="#738496" d="M1005.74,-128C1191.56,-128 1684.5,-128 1684.5,-128 1684.5,-128 1684.5,-70.1 1684.5,-70.1"/>
<polygon fill="#738496" stroke="#738496" points="1686.95,-70.1 1684.5,-63.1 1682.05,-70.1 1686.95,-70.1"/>
</g>
<!-- q0&#45;&gt;seq1 -->
<g id="edge26" class="edge">
<title>q0&#45;&gt;seq1</title>
<path fill="none" stroke="#738496" d="M1472.75,-947.79C1472.75,-921.49 1472.75,-876 1472.75,-876 1472.75,-876 1402.87,-876 1402.87,-876"/>
<polygon fill="#738496" stroke="#738496" points="1402.87,-873.55 1395.87,-876 1402.87,-878.45 1402.87,-873.55"/>
</g>
<!-- q0&#45;&gt;ineq1 -->
<g id="edge32" class="edge">
<title>q0&#45;&gt;ineq1</title>
<path fill="none" stroke="#738496" d="M1537,-947.79C1537,-947.79 1537,-908.69 1537,-908.69"/>
<polygon fill="#738496" stroke="#738496" points="1539.45,-908.69 1537,-901.69 1534.55,-908.69 1539.45,-908.69"/>
</g>
<!-- seq1&#45;&gt;seq2 -->
<g id="edge27" class="edge">
<title>seq1&#45;&gt;seq2</title>
<path fill="none" stroke="#738496" d="M1208.4,-876C1151.6,-876 1090,-876 1090,-876 1090,-876 1090,-811.12 1090,-811.12"/>
<polygon fill="#738496" stroke="#738496" points="1092.45,-811.12 1090,-804.12 1087.55,-811.12 1092.45,-811.12"/>
</g>
<!-- seq1&#45;&gt;seq3 -->
<g id="edge28" class="edge">
<title>seq1&#45;&gt;seq3</title>
<path fill="none" stroke="#738496" d="M1333.17,-850.38C1333.17,-850.38 1333.17,-811.28 1333.17,-811.28"/>
<polygon fill="#738496" stroke="#738496" points="1335.62,-811.28 1333.17,-804.28 1330.72,-811.28 1335.62,-811.28"/>
</g>
<!-- seq2&#45;&gt;seq4 -->
<g id="edge29" class="edge">
<title>seq2&#45;&gt;seq4</title>
<path fill="none" stroke="#738496" d="M1134.5,-752.67C1134.5,-752.67 1134.5,-720.08 1134.5,-720.08"/>
<polygon fill="#738496" stroke="#738496" points="1136.95,-720.08 1134.5,-713.08 1132.05,-720.08 1136.95,-720.08"/>
</g>
<!-- seq3&#45;&gt;seq4 -->
<g id="edge30" class="edge">
<title>seq3&#45;&gt;seq4</title>
<path fill="none" stroke="#738496" d="M1221,-752.67C1221,-752.67 1221,-720.08 1221,-720.08"/>
<polygon fill="#738496" stroke="#738496" points="1223.45,-720.08 1221,-713.08 1218.55,-720.08 1223.45,-720.08"/>
</g>
<!-- seq4&#45;&gt;seq5 -->
<g id="edge31" class="edge">
<title>seq4&#45;&gt;seq5</title>
<path fill="none" stroke="#738496" d="M1195,-661.67C1195,-661.67 1195,-629.08 1195,-629.08"/>
<polygon fill="#738496" stroke="#738496" points="1197.45,-629.08 1195,-622.08 1192.55,-629.08 1197.45,-629.08"/>
</g>
<!-- ineq1&#45;&gt;ineq2 -->
<g id="edge33" class="edge">
<title>ineq1&#45;&gt;ineq2</title>
<path fill="none" stroke="#738496" d="M1537,-850.38C1537,-850.38 1537,-811.28 1537,-811.28"/>
<polygon fill="#738496" stroke="#738496" points="1539.45,-811.28 1537,-804.28 1534.55,-811.28 1539.45,-811.28"/>
</g>
<!-- ineq2&#45;&gt;ineq3 -->
<g id="edge34" class="edge">
<title>ineq2&#45;&gt;ineq3</title>
<path fill="none" stroke="#738496" d="M1537,-752.67C1537,-752.67 1537,-713.74 1537,-713.74"/>
<polygon fill="#738496" stroke="#738496" points="1539.45,-713.74 1537,-706.74 1534.55,-713.74 1539.45,-713.74"/>
</g>
<!-- ineq3&#45;&gt;lp1 -->
<g id="edge35" class="edge">
<title>ineq3&#45;&gt;lp1</title>
<path fill="none" stroke="#738496" d="M1498,-668.2C1498,-668.2 1498,-629.33 1498,-629.33"/>
<polygon fill="#738496" stroke="#738496" points="1500.45,-629.33 1498,-622.33 1495.55,-629.33 1500.45,-629.33"/>
</g>
<!-- lp1&#45;&gt;opt1 -->
<g id="edge36" class="edge">
<title>lp1&#45;&gt;opt1</title>
<path fill="none" stroke="#738496" d="M1525,-570.71C1525,-570.71 1525,-349.73 1525,-349.73"/>
<polygon fill="#738496" stroke="#738496" points="1527.45,-349.73 1525,-342.73 1522.55,-349.73 1527.45,-349.73"/>
</g>
<!-- opt1&#45;&gt;summary -->
<g id="edge94" class="edge">
<title>opt1&#45;&gt;summary</title>
<path fill="none" stroke="#738496" d="M1552,-291.13C1552,-222.67 1552,-42 1552,-42 1552,-42 1669.21,-42 1669.21,-42"/>
<polygon fill="#738496" stroke="#738496" points="1669.21,-44.45 1676.21,-42 1669.21,-39.55 1669.21,-44.45"/>
</g>
<!-- g0&#45;&gt;line1 -->
<g id="edge37" class="edge">
<title>g0&#45;&gt;line1</title>
<path fill="none" stroke="#738496" d="M1732,-947.79C1732,-947.79 1732,-902.12 1732,-902.12"/>
<polygon fill="#738496" stroke="#738496" points="1734.45,-902.12 1732,-895.12 1729.55,-902.12 1734.45,-902.12"/>
</g>
<!-- line1&#45;&gt;line2 -->
<g id="edge38" class="edge">
<title>line1&#45;&gt;line2</title>
<path fill="none" stroke="#738496" d="M1753.17,-856.74C1753.17,-856.74 1753.17,-811.01 1753.17,-811.01"/>
<polygon fill="#738496" stroke="#738496" points="1755.62,-811.01 1753.17,-804.01 1750.72,-811.01 1755.62,-811.01"/>
</g>
<!-- line2&#45;&gt;line3 -->
<g id="edge39" class="edge">
<title>line2&#45;&gt;line3</title>
<path fill="none" stroke="#738496" d="M1732,-752.67C1732,-752.67 1732,-720.08 1732,-720.08"/>
<polygon fill="#738496" stroke="#738496" points="1734.45,-720.08 1732,-713.08 1729.55,-720.08 1734.45,-720.08"/>
</g>
<!-- line3&#45;&gt;line4 -->
<g id="edge40" class="edge">
<title>line3&#45;&gt;line4</title>
<path fill="none" stroke="#738496" d="M1732,-661.67C1732,-661.67 1732,-629.08 1732,-629.08"/>
<polygon fill="#738496" stroke="#738496" points="1734.45,-629.08 1732,-622.08 1729.55,-629.08 1734.45,-629.08"/>
</g>
<!-- line4&#45;&gt;circle1 -->
<g id="edge41" class="edge">
<title>line4&#45;&gt;circle1</title>
<path fill="none" stroke="#738496" d="M1732,-570.67C1732,-570.67 1732,-538.08 1732,-538.08"/>
<polygon fill="#738496" stroke="#738496" points="1734.45,-538.08 1732,-531.08 1729.55,-538.08 1734.45,-538.08"/>
</g>
<!-- circle1&#45;&gt;conic1 -->
<g id="edge42" class="edge">
<title>circle1&#45;&gt;conic1</title>
<path fill="none" stroke="#738496" d="M1733,-479.67C1733,-479.67 1733,-447.08 1733,-447.08"/>
<polygon fill="#738496" stroke="#738496" points="1735.45,-447.08 1733,-440.08 1730.55,-447.08 1735.45,-447.08"/>
</g>
<!-- conic1&#45;&gt;conic2 -->
<g id="edge43" class="edge">
<title>conic1&#45;&gt;conic2</title>
<path fill="none" stroke="#738496" d="M1733,-388.88C1733,-388.88 1733,-349.78 1733,-349.78"/>
<polygon fill="#738496" stroke="#738496" points="1735.45,-349.78 1733,-342.78 1730.55,-349.78 1735.45,-349.78"/>
</g>
<!-- conic2&#45;&gt;conic3 -->
<g id="edge44" class="edge">
<title>conic2&#45;&gt;conic3</title>
<path fill="none" stroke="#738496" d="M1736,-291.38C1736,-291.38 1736,-245.78 1736,-245.78"/>
<polygon fill="#738496" stroke="#738496" points="1738.45,-245.78 1736,-238.78 1733.55,-245.78 1738.45,-245.78"/>
</g>
<!-- conic3&#45;&gt;sym1 -->
<g id="edge45" class="edge">
<title>conic3&#45;&gt;sym1</title>
<path fill="none" stroke="#738496" d="M1750,-200.2C1750,-200.2 1750,-161.33 1750,-161.33"/>
<polygon fill="#738496" stroke="#738496" points="1752.45,-161.33 1750,-154.33 1747.55,-161.33 1752.45,-161.33"/>
</g>
<!-- sym1&#45;&gt;summary -->
<g id="edge95" class="edge">
<title>sym1&#45;&gt;summary</title>
<path fill="none" stroke="#738496" d="M1750,-102.76C1750,-102.76 1750,-70.26 1750,-70.26"/>
<polygon fill="#738496" stroke="#738496" points="1752.45,-70.26 1750,-63.26 1747.55,-70.26 1752.45,-70.26"/>
</g>
<!-- s0&#45;&gt;solid1 -->
<g id="edge46" class="edge">
<title>s0&#45;&gt;solid1</title>
<path fill="none" stroke="#738496" d="M1932,-947.79C1932,-947.79 1932,-902.12 1932,-902.12"/>
<polygon fill="#738496" stroke="#738496" points="1934.45,-902.12 1932,-895.12 1929.55,-902.12 1934.45,-902.12"/>
</g>
<!-- solid1&#45;&gt;solid2 -->
<g id="edge47" class="edge">
<title>solid1&#45;&gt;solid2</title>
<path fill="none" stroke="#738496" d="M1934,-856.74C1934,-856.74 1934,-804.72 1934,-804.72"/>
<polygon fill="#738496" stroke="#738496" points="1936.45,-804.72 1934,-797.72 1931.55,-804.72 1936.45,-804.72"/>
</g>
<!-- solid2&#45;&gt;pos1 -->
<g id="edge48" class="edge">
<title>solid2&#45;&gt;pos1</title>
<path fill="none" stroke="#738496" d="M1936,-759.2C1936,-759.2 1936,-713.77 1936,-713.77"/>
<polygon fill="#738496" stroke="#738496" points="1938.45,-713.77 1936,-706.77 1933.55,-713.77 1938.45,-713.77"/>
</g>
<!-- pos1&#45;&gt;pos2 -->
<g id="edge49" class="edge">
<title>pos1&#45;&gt;pos2</title>
<path fill="none" stroke="#738496" d="M1940,-668.2C1940,-668.2 1940,-629.33 1940,-629.33"/>
<polygon fill="#738496" stroke="#738496" points="1942.45,-629.33 1940,-622.33 1937.55,-629.33 1942.45,-629.33"/>
</g>
<!-- pos2&#45;&gt;spacev1 -->
<g id="edge50" class="edge">
<title>pos2&#45;&gt;spacev1</title>
<path fill="none" stroke="#738496" d="M1943,-570.67C1943,-570.67 1943,-538.08 1943,-538.08"/>
<polygon fill="#738496" stroke="#738496" points="1945.45,-538.08 1943,-531.08 1940.55,-538.08 1945.45,-538.08"/>
</g>
<!-- spacev1&#45;&gt;ang1 -->
<g id="edge51" class="edge">
<title>spacev1&#45;&gt;ang1</title>
<path fill="none" stroke="#738496" d="M1943,-479.67C1943,-479.67 1943,-447.08 1943,-447.08"/>
<polygon fill="#738496" stroke="#738496" points="1945.45,-447.08 1943,-440.08 1940.55,-447.08 1945.45,-447.08"/>
</g>
<!-- ang1&#45;&gt;ang2 -->
<g id="edge52" class="edge">
<title>ang1&#45;&gt;ang2</title>
<path fill="none" stroke="#738496" d="M1940,-388.88C1940,-388.88 1940,-356.08 1940,-356.08"/>
<polygon fill="#738496" stroke="#738496" points="1942.45,-356.08 1940,-349.08 1937.55,-356.08 1942.45,-356.08"/>
</g>
<!-- ang2&#45;&gt;dist1 -->
<g id="edge53" class="edge">
<title>ang2&#45;&gt;dist1</title>
<path fill="none" stroke="#738496" d="M1940,-284.6C1940,-284.6 1940,-161.14 1940,-161.14"/>
<polygon fill="#738496" stroke="#738496" points="1942.45,-161.14 1940,-154.14 1937.55,-161.14 1942.45,-161.14"/>
</g>
<!-- dist1&#45;&gt;summary -->
<g id="edge96" class="edge">
<title>dist1&#45;&gt;summary</title>
<path fill="none" stroke="#738496" d="M1935,-102.76C1935,-102.76 1935,-70.26 1935,-70.26"/>
<polygon fill="#738496" stroke="#738496" points="1937.45,-70.26 1935,-63.26 1932.55,-70.26 1937.45,-70.26"/>
</g>
<!-- p0&#45;&gt;stat1 -->
<g id="edge54" class="edge">
<title>p0&#45;&gt;stat1</title>
<path fill="none" stroke="#738496" d="M2144,-947.79C2144,-947.79 2144,-902.12 2144,-902.12"/>
<polygon fill="#738496" stroke="#738496" points="2146.45,-902.12 2144,-895.12 2141.55,-902.12 2146.45,-902.12"/>
</g>
<!-- stat1&#45;&gt;stat2 -->
<g id="edge55" class="edge">
<title>stat1&#45;&gt;stat2</title>
<path fill="none" stroke="#738496" d="M2180,-856.74C2180,-856.74 2180,-811.01 2180,-811.01"/>
<polygon fill="#738496" stroke="#738496" points="2182.45,-811.01 2180,-804.01 2177.55,-811.01 2182.45,-811.01"/>
</g>
<!-- stat2&#45;&gt;stat3 -->
<g id="edge56" class="edge">
<title>stat2&#45;&gt;stat3</title>
<path fill="none" stroke="#738496" d="M2185,-752.67C2185,-752.67 2185,-720.08 2185,-720.08"/>
<polygon fill="#738496" stroke="#738496" points="2187.45,-720.08 2185,-713.08 2182.55,-720.08 2187.45,-720.08"/>
</g>
<!-- stat3&#45;&gt;stat4 -->
<g id="edge57" class="edge">
<title>stat3&#45;&gt;stat4</title>
<path fill="none" stroke="#738496" d="M2183,-661.67C2183,-661.67 2183,-629.08 2183,-629.08"/>
<polygon fill="#738496" stroke="#738496" points="2185.45,-629.08 2183,-622.08 2180.55,-629.08 2185.45,-629.08"/>
</g>
<!-- stat4&#45;&gt;prob1 -->
<g id="edge58" class="edge">
<title>stat4&#45;&gt;prob1</title>
<path fill="none" stroke="#738496" d="M2183,-570.67C2183,-570.67 2183,-538.08 2183,-538.08"/>
<polygon fill="#738496" stroke="#738496" points="2185.45,-538.08 2183,-531.08 2180.55,-538.08 2185.45,-538.08"/>
</g>
<!-- prob1&#45;&gt;prob2 -->
<g id="edge59" class="edge">
<title>prob1&#45;&gt;prob2</title>
<path fill="none" stroke="#738496" d="M2182,-479.67C2182,-479.67 2182,-447.08 2182,-447.08"/>
<polygon fill="#738496" stroke="#738496" points="2184.45,-447.08 2182,-440.08 2179.55,-447.08 2184.45,-447.08"/>
</g>
<!-- prob2&#45;&gt;prob3 -->
<g id="edge60" class="edge">
<title>prob2&#45;&gt;prob3</title>
<path fill="none" stroke="#738496" d="M2182,-388.88C2182,-388.88 2182,-349.78 2182,-349.78"/>
<polygon fill="#738496" stroke="#738496" points="2184.45,-349.78 2182,-342.78 2179.55,-349.78 2184.45,-349.78"/>
</g>
<!-- prob3&#45;&gt;rv1 -->
<g id="edge61" class="edge">
<title>prob3&#45;&gt;rv1</title>
<path fill="none" stroke="#738496" d="M2182,-291.38C2182,-291.38 2182,-245.78 2182,-245.78"/>
<polygon fill="#738496" stroke="#738496" points="2184.45,-245.78 2182,-238.78 2179.55,-245.78 2184.45,-245.78"/>
</g>
<!-- rv1&#45;&gt;rv2 -->
<g id="edge62" class="edge">
<title>rv1&#45;&gt;rv2</title>
<path fill="none" stroke="#738496" d="M2182,-200.2C2182,-200.2 2182,-161.33 2182,-161.33"/>
<polygon fill="#738496" stroke="#738496" points="2184.45,-161.33 2182,-154.33 2179.55,-161.33 2184.45,-161.33"/>
</g>
<!-- rv2&#45;&gt;summary -->
<g id="edge97" class="edge">
<title>rv2&#45;&gt;summary</title>
<path fill="none" stroke="#738496" d="M2182,-102.71C2182,-78.84 2182,-47 2182,-47 2182,-47 2032.71,-47 2032.71,-47"/>
<polygon fill="#738496" stroke="#738496" points="2032.71,-44.55 2025.71,-47 2032.71,-49.45 2032.71,-44.55"/>
</g>
<!-- m0&#45;&gt;count1 -->
<g id="edge63" class="edge">
<title>m0&#45;&gt;count1</title>
<path fill="none" stroke="#738496" d="M2405,-947.79C2405,-947.79 2405,-908.69 2405,-908.69"/>
<polygon fill="#738496" stroke="#738496" points="2407.45,-908.69 2405,-901.69 2402.55,-908.69 2407.45,-908.69"/>
</g>
<!-- m0&#45;&gt;logic1 -->
<g id="edge68" class="edge">
<title>m0&#45;&gt;logic1</title>
<path fill="none" stroke="#738496" d="M2619.76,-966C2741.67,-966 2917,-966 2917,-966 2917,-966 2917,-908.55 2917,-908.55"/>
<polygon fill="#738496" stroke="#738496" points="2919.45,-908.55 2917,-901.55 2914.55,-908.55 2919.45,-908.55"/>
</g>
<!-- m0&#45;&gt;alg1 -->
<g id="edge72" class="edge">
<title>m0&#45;&gt;alg1</title>
<path fill="none" stroke="#738496" d="M2605,-947.79C2605,-947.79 2605,-902.12 2605,-902.12"/>
<polygon fill="#738496" stroke="#738496" points="2607.45,-902.12 2605,-895.12 2602.55,-902.12 2607.45,-902.12"/>
</g>
<!-- m0&#45;&gt;cx1 -->
<g id="edge74" class="edge">
<title>m0&#45;&gt;cx1</title>
<path fill="none" stroke="#738496" d="M2505,-947.79C2505,-947.79 2505,-908.69 2505,-908.69"/>
<polygon fill="#738496" stroke="#738496" points="2507.45,-908.69 2505,-901.69 2502.55,-908.69 2507.45,-908.69"/>
</g>
<!-- count1&#45;&gt;count2 -->
<g id="edge64" class="edge">
<title>count1&#45;&gt;count2</title>
<path fill="none" stroke="#738496" d="M2374.5,-850.38C2374.5,-850.38 2374.5,-811.28 2374.5,-811.28"/>
<polygon fill="#738496" stroke="#738496" points="2376.95,-811.28 2374.5,-804.28 2372.05,-811.28 2376.95,-811.28"/>
</g>
<!-- count2&#45;&gt;prob1 -->
<g id="edge87" class="edge">
<title>count2&#45;&gt;prob1</title>
<path fill="none" stroke="#95a3b3" stroke-dasharray="5,2" d="M2341.75,-752.85C2341.75,-728.63 2341.75,-696 2341.75,-696 2341.75,-696 2272.5,-696 2272.5,-696 2272.5,-696 2272.5,-538.19 2272.5,-538.19"/>
<polygon fill="#95a3b3" stroke="#95a3b3" points="2274.95,-538.19 2272.5,-531.19 2270.05,-538.19 2274.95,-538.19"/>
</g>
<!-- count2&#45;&gt;bin1 -->
<g id="edge65" class="edge">
<title>count2&#45;&gt;bin1</title>
<path fill="none" stroke="#738496" d="M2407,-752.67C2407,-752.67 2407,-720.08 2407,-720.08"/>
<polygon fill="#738496" stroke="#738496" points="2409.45,-720.08 2407,-713.08 2404.55,-720.08 2409.45,-720.08"/>
</g>
<!-- bin1&#45;&gt;prob3 -->
<g id="edge88" class="edge">
<title>bin1&#45;&gt;prob3</title>
<path fill="none" stroke="#95a3b3" stroke-dasharray="5,2" d="M2353.77,-679C2333.64,-679 2315.5,-679 2315.5,-679 2315.5,-679 2315.5,-317 2315.5,-317 2315.5,-317 2253.79,-317 2253.79,-317"/>
<polygon fill="#95a3b3" stroke="#95a3b3" points="2253.79,-314.55 2246.79,-317 2253.79,-319.45 2253.79,-314.55"/>
</g>
<!-- bin1&#45;&gt;bin2 -->
<g id="edge66" class="edge">
<title>bin1&#45;&gt;bin2</title>
<path fill="none" stroke="#738496" d="M2407,-661.67C2407,-661.67 2407,-622.74 2407,-622.74"/>
<polygon fill="#738496" stroke="#738496" points="2409.45,-622.74 2407,-615.74 2404.55,-622.74 2409.45,-622.74"/>
</g>
<!-- bin1&#45;&gt;bin3 -->
<g id="edge67" class="edge">
<title>bin1&#45;&gt;bin3</title>
<path fill="none" stroke="#738496" d="M2460.11,-687C2496.6,-687 2538.5,-687 2538.5,-687 2538.5,-687 2538.5,-629.19 2538.5,-629.19"/>
<polygon fill="#738496" stroke="#738496" points="2540.95,-629.19 2538.5,-622.19 2536.05,-629.19 2540.95,-629.19"/>
</g>
<!-- logic1&#45;&gt;logic2 -->
<g id="edge69" class="edge">
<title>logic1&#45;&gt;logic2</title>
<path fill="none" stroke="#738496" d="M2928,-850.38C2928,-850.38 2928,-811.28 2928,-811.28"/>
<polygon fill="#738496" stroke="#738496" points="2930.45,-811.28 2928,-804.28 2925.55,-811.28 2930.45,-811.28"/>
</g>
<!-- logic2&#45;&gt;proof1 -->
<g id="edge70" class="edge">
<title>logic2&#45;&gt;proof1</title>
<path fill="none" stroke="#738496" d="M2915.5,-752.67C2915.5,-752.67 2915.5,-720.08 2915.5,-720.08"/>
<polygon fill="#738496" stroke="#738496" points="2917.95,-720.08 2915.5,-713.08 2913.05,-720.08 2917.95,-720.08"/>
</g>
<!-- proof1&#45;&gt;proof2 -->
<g id="edge71" class="edge">
<title>proof1&#45;&gt;proof2</title>
<path fill="none" stroke="#738496" d="M2865.5,-661.67C2865.5,-661.67 2865.5,-252.25 2865.5,-252.25"/>
<polygon fill="#738496" stroke="#738496" points="2867.95,-252.25 2865.5,-245.25 2863.05,-252.25 2867.95,-252.25"/>
</g>
<!-- proof2&#45;&gt;summary -->
<g id="edge91" class="edge">
<title>proof2&#45;&gt;summary</title>
<path fill="none" stroke="#7c4dff" stroke-dasharray="5,2" d="M2858,-193.6C2858,-138.57 2858,-15 2858,-15 2858,-15 2032.54,-15 2032.54,-15"/>
<polygon fill="#7c4dff" stroke="#7c4dff" points="2032.54,-12.55 2025.54,-15 2032.54,-17.45 2032.54,-12.55"/>
</g>
<!-- alg1&#45;&gt;alg2 -->
<g id="edge73" class="edge">
<title>alg1&#45;&gt;alg2</title>
<path fill="none" stroke="#738496" d="M2728.5,-856.74C2728.5,-856.74 2728.5,-804.72 2728.5,-804.72"/>
<polygon fill="#738496" stroke="#738496" points="2730.95,-804.72 2728.5,-797.72 2726.05,-804.72 2730.95,-804.72"/>
</g>
<!-- cx1&#45;&gt;cx2 -->
<g id="edge75" class="edge">
<title>cx1&#45;&gt;cx2</title>
<path fill="none" stroke="#738496" d="M2502,-850.27C2502,-850.27 2502,-161.12 2502,-161.12"/>
<polygon fill="#738496" stroke="#738496" points="2504.45,-161.12 2502,-154.12 2499.55,-161.12 2504.45,-161.12"/>
</g>
<!-- cx2&#45;&gt;summary -->
<g id="edge98" class="edge">
<title>cx2&#45;&gt;summary</title>
<path fill="none" stroke="#738496" d="M2559,-102.88C2559,-74 2559,-31 2559,-31 2559,-31 2032.56,-31 2032.56,-31"/>
<polygon fill="#738496" stroke="#738496" points="2032.56,-28.55 2025.56,-31 2032.56,-33.45 2032.56,-28.55"/>
</g>
<!-- root -->
<g id="node1" class="node">
<title>root</title>
<path fill="#e8eefc" stroke="#4c6edb" stroke-width="1.8" d="M1878,-1076C1878,-1076 1586,-1076 1586,-1076 1580,-1076 1574,-1070 1574,-1064 1574,-1064 1574,-1036 1574,-1036 1574,-1030 1580,-1024 1586,-1024 1586,-1024 1878,-1024 1878,-1024 1884,-1024 1890,-1030 1890,-1036 1890,-1036 1890,-1064 1890,-1064 1890,-1070 1884,-1076 1878,-1076"/>
<text text-anchor="middle" x="1732" y="-1055.6" font-family="Noto Sans CJK SC" font-size="18.00">高中数学知识体系总图</text>
<text text-anchor="middle" x="1732" y="-1035.6" font-family="Noto Sans CJK SC" font-size="18.00">主线：概念—性质—公式—方法—应用</text>
</g>
<!-- summary -->
<g id="node2" class="node">
<title>summary</title>
<path fill="#f3ecff" stroke="#7c4dff" stroke-width="1.6" d="M2013.5,-63C2013.5,-63 1688.5,-63 1688.5,-63 1682.5,-63 1676.5,-57 1676.5,-51 1676.5,-51 1676.5,-12 1676.5,-12 1676.5,-6 1682.5,0 1688.5,0 1688.5,0 2013.5,0 2013.5,0 2019.5,0 2025.5,-6 2025.5,-12 2025.5,-12 2025.5,-51 2025.5,-51 2025.5,-57 2019.5,-63 2013.5,-63"/>
<text text-anchor="middle" x="1851" y="-45" font-family="Noto Sans CJK SC" font-size="15.00">综合方法主线</text>
<text text-anchor="middle" x="1851" y="-28" font-family="Noto Sans CJK SC" font-size="15.00">函数与方程｜数形结合｜分类讨论｜转化与化归</text>
<text text-anchor="middle" x="1851" y="-11" font-family="Noto Sans CJK SC" font-size="15.00">建模｜抽象概括｜逻辑推理｜运算求解｜数据分析</text>
</g>
<!-- f0 -->
<g id="node3" class="node">
<title>f0</title>
<path fill="#dbe7ff" stroke="#5b7cfa" stroke-width="1.6" d="M654,-984C654,-984 434,-984 434,-984 428,-984 422,-978 422,-972 422,-972 422,-960 422,-960 422,-954 428,-948 434,-948 434,-948 654,-948 654,-948 660,-948 666,-954 666,-960 666,-960 666,-972 666,-972 666,-978 660,-984 654,-984"/>
<text text-anchor="middle" x="544" y="-962.5" font-family="Noto Sans CJK SC" font-size="15.00">集合、映射、函数、导数与微积分</text>
</g>
<!-- set1 -->
<g id="node4" class="node">
<title>set1</title>
<path fill="#eef4ff" stroke="#425466" stroke-width="1.1" d="M434.5,-908C434.5,-908 303.5,-908 303.5,-908 297.5,-908 291.5,-902 291.5,-896 291.5,-896 291.5,-856 291.5,-856 291.5,-850 297.5,-844 303.5,-844 303.5,-844 434.5,-844 434.5,-844 440.5,-844 446.5,-850 446.5,-856 446.5,-856 446.5,-896 446.5,-896 446.5,-902 440.5,-908 434.5,-908"/>
<text text-anchor="middle" x="369" y="-892.4" font-family="Noto Sans CJK SC" font-size="12.00">集合</text>
<text text-anchor="middle" x="369" y="-879.4" font-family="Noto Sans CJK SC" font-size="12.00">概念与表示</text>
<text text-anchor="middle" x="369" y="-866.4" font-family="Noto Sans CJK SC" font-size="12.00">关系、交、并、补</text>
<text text-anchor="middle" x="369" y="-853.4" font-family="Noto Sans CJK SC" font-size="12.00">数轴 / Venn 图 / 图象表征</text>
</g>
<!-- map1 -->
<g id="node5" class="node">
<title>map1</title>
<path fill="#eef4ff" stroke="#425466" stroke-width="1.1" d="M607.5,-901.5C607.5,-901.5 480.5,-901.5 480.5,-901.5 474.5,-901.5 468.5,-895.5 468.5,-889.5 468.5,-889.5 468.5,-862.5 468.5,-862.5 468.5,-856.5 474.5,-850.5 480.5,-850.5 480.5,-850.5 607.5,-850.5 607.5,-850.5 613.5,-850.5 619.5,-856.5 619.5,-862.5 619.5,-862.5 619.5,-889.5 619.5,-889.5 619.5,-895.5 613.5,-901.5 607.5,-901.5"/>
<text text-anchor="middle" x="544" y="-885.9" font-family="Noto Sans CJK SC" font-size="12.00">映射</text>
<text text-anchor="middle" x="544" y="-872.9" font-family="Noto Sans CJK SC" font-size="12.00">定义、表示</text>
<text text-anchor="middle" x="544" y="-859.9" font-family="Noto Sans CJK SC" font-size="12.00">从对应关系走向函数抽象</text>
</g>
<!-- func1 -->
<g id="node6" class="node">
<title>func1</title>
<path fill="#eef4ff" stroke="#425466" stroke-width="1.1" d="M456.5,-804C456.5,-804 281.5,-804 281.5,-804 275.5,-804 269.5,-798 269.5,-792 269.5,-792 269.5,-765 269.5,-765 269.5,-759 275.5,-753 281.5,-753 281.5,-753 456.5,-753 456.5,-753 462.5,-753 468.5,-759 468.5,-765 468.5,-765 468.5,-792 468.5,-792 468.5,-798 462.5,-804 456.5,-804"/>
<text text-anchor="middle" x="369" y="-788.4" font-family="Noto Sans CJK SC" font-size="12.00">函数</text>
<text text-anchor="middle" x="369" y="-775.4" font-family="Noto Sans CJK SC" font-size="12.00">三要素：定义域、对应关系、值域</text>
<text text-anchor="middle" x="369" y="-762.4" font-family="Noto Sans CJK SC" font-size="12.00">表示：解析式、列表、图象</text>
</g>
<!-- func2 -->
<g id="node7" class="node">
<title>func2</title>
<path fill="#eef4ff" stroke="#425466" stroke-width="1.1" d="M239.5,-713C239.5,-713 28.5,-713 28.5,-713 22.5,-713 16.5,-707 16.5,-701 16.5,-701 16.5,-674 16.5,-674 16.5,-668 22.5,-662 28.5,-662 28.5,-662 239.5,-662 239.5,-662 245.5,-662 251.5,-668 251.5,-674 251.5,-674 251.5,-701 251.5,-701 251.5,-707 245.5,-713 239.5,-713"/>
<text text-anchor="middle" x="134" y="-697.4" font-family="Noto Sans CJK SC" font-size="12.00">函数性质</text>
<text text-anchor="middle" x="134" y="-684.4" font-family="Noto Sans CJK SC" font-size="12.00">单调性、奇偶性、周期性、对称性、最值</text>
<text text-anchor="middle" x="134" y="-671.4" font-family="Noto Sans CJK SC" font-size="12.00">图象变换：平移、翻折、对称、伸缩</text>
</g>
<!-- func3 -->
<g id="node8" class="node">
<title>func3</title>
<path fill="#eef4ff" stroke="#425466" stroke-width="1.1" d="M448.5,-713C448.5,-713 285.5,-713 285.5,-713 279.5,-713 273.5,-707 273.5,-701 273.5,-701 273.5,-674 273.5,-674 273.5,-668 279.5,-662 285.5,-662 285.5,-662 448.5,-662 448.5,-662 454.5,-662 460.5,-668 460.5,-674 460.5,-674 460.5,-701 460.5,-701 460.5,-707 454.5,-713 448.5,-713"/>
<text text-anchor="middle" x="367" y="-697.4" font-family="Noto Sans CJK SC" font-size="12.00">基本初等函数</text>
<text text-anchor="middle" x="367" y="-684.4" font-family="Noto Sans CJK SC" font-size="12.00">一次、二次、反比例、幂函数</text>
<text text-anchor="middle" x="367" y="-671.4" font-family="Noto Sans CJK SC" font-size="12.00">指数函数、对数函数、三角函数</text>
</g>
<!-- func4 -->
<g id="node9" class="node">
<title>func4</title>
<path fill="#eef4ff" stroke="#425466" stroke-width="1.1" d="M657.5,-713C657.5,-713 494.5,-713 494.5,-713 488.5,-713 482.5,-707 482.5,-701 482.5,-701 482.5,-674 482.5,-674 482.5,-668 488.5,-662 494.5,-662 494.5,-662 657.5,-662 657.5,-662 663.5,-662 669.5,-668 669.5,-674 669.5,-674 669.5,-701 669.5,-701 669.5,-707 663.5,-713 657.5,-713"/>
<text text-anchor="middle" x="576" y="-697.4" font-family="Noto Sans CJK SC" font-size="12.00">函数综合</text>
<text text-anchor="middle" x="576" y="-684.4" font-family="Noto Sans CJK SC" font-size="12.00">分段函数、复合函数、抽象函数</text>
<text text-anchor="middle" x="576" y="-671.4" font-family="Noto Sans CJK SC" font-size="12.00">零点、方程与建模</text>
</g>
<!-- der1 -->
<g id="node10" class="node">
<title>der1</title>
<path fill="#eef4ff" stroke="#425466" stroke-width="1.1" d="M433.5,-622C433.5,-622 318.5,-622 318.5,-622 312.5,-622 306.5,-616 306.5,-610 306.5,-610 306.5,-583 306.5,-583 306.5,-577 312.5,-571 318.5,-571 318.5,-571 433.5,-571 433.5,-571 439.5,-571 445.5,-577 445.5,-583 445.5,-583 445.5,-610 445.5,-610 445.5,-616 439.5,-622 433.5,-622"/>
<text text-anchor="middle" x="376" y="-606.4" font-family="Noto Sans CJK SC" font-size="12.00">导数概念</text>
<text text-anchor="middle" x="376" y="-593.4" font-family="Noto Sans CJK SC" font-size="12.00">几何意义：切线斜率</text>
<text text-anchor="middle" x="376" y="-580.4" font-family="Noto Sans CJK SC" font-size="12.00">物理意义：瞬时变化率</text>
</g>
<!-- der2 -->
<g id="node11" class="node">
<title>der2</title>
<path fill="#eef4ff" stroke="#425466" stroke-width="1.1" d="M549.5,-531C549.5,-531 422.5,-531 422.5,-531 416.5,-531 410.5,-525 410.5,-519 410.5,-519 410.5,-492 410.5,-492 410.5,-486 416.5,-480 422.5,-480 422.5,-480 549.5,-480 549.5,-480 555.5,-480 561.5,-486 561.5,-492 561.5,-492 561.5,-519 561.5,-519 561.5,-525 555.5,-531 549.5,-531"/>
<text text-anchor="middle" x="486" y="-515.4" font-family="Noto Sans CJK SC" font-size="12.00">导数运算</text>
<text text-anchor="middle" x="486" y="-502.4" font-family="Noto Sans CJK SC" font-size="12.00">基本初等函数求导</text>
<text text-anchor="middle" x="486" y="-489.4" font-family="Noto Sans CJK SC" font-size="12.00">和差积商、复合函数求导</text>
</g>
<!-- der3 -->
<g id="node12" class="node">
<title>der3</title>
<path fill="#eef4ff" stroke="#425466" stroke-width="1.1" d="M610.5,-440C610.5,-440 471.5,-440 471.5,-440 465.5,-440 459.5,-434 459.5,-428 459.5,-428 459.5,-401 459.5,-401 459.5,-395 465.5,-389 471.5,-389 471.5,-389 610.5,-389 610.5,-389 616.5,-389 622.5,-395 622.5,-401 622.5,-401 622.5,-428 622.5,-428 622.5,-434 616.5,-440 610.5,-440"/>
<text text-anchor="middle" x="541" y="-424.4" font-family="Noto Sans CJK SC" font-size="12.00">导数应用</text>
<text text-anchor="middle" x="541" y="-411.4" font-family="Noto Sans CJK SC" font-size="12.00">单调性、极值、最值、切线</text>
<text text-anchor="middle" x="541" y="-398.4" font-family="Noto Sans CJK SC" font-size="12.00">优化问题、三次函数图象</text>
</g>
<!-- int1 -->
<g id="node13" class="node">
<title>int1</title>
<path fill="#eef4ff" stroke="#425466" stroke-width="1.1" d="M646.5,-245C646.5,-245 543.5,-245 543.5,-245 537.5,-245 531.5,-239 531.5,-233 531.5,-233 531.5,-206 531.5,-206 531.5,-200 537.5,-194 543.5,-194 543.5,-194 646.5,-194 646.5,-194 652.5,-194 658.5,-200 658.5,-206 658.5,-206 658.5,-233 658.5,-233 658.5,-239 652.5,-245 646.5,-245"/>
<text text-anchor="middle" x="595" y="-229.4" font-family="Noto Sans CJK SC" font-size="12.00">定积分与微积分初步</text>
<text text-anchor="middle" x="595" y="-216.4" font-family="Noto Sans CJK SC" font-size="12.00">定积分的几何意义</text>
<text text-anchor="middle" x="595" y="-203.4" font-family="Noto Sans CJK SC" font-size="12.00">面积计算与函数综合</text>
</g>
<!-- t0 -->
<g id="node14" class="node">
<title>t0</title>
<path fill="#ffe0eb" stroke="#e35d8f" stroke-width="1.6" d="M993.5,-984C993.5,-984 788.5,-984 788.5,-984 782.5,-984 776.5,-978 776.5,-972 776.5,-972 776.5,-960 776.5,-960 776.5,-954 782.5,-948 788.5,-948 788.5,-948 993.5,-948 993.5,-948 999.5,-948 1005.5,-954 1005.5,-960 1005.5,-960 1005.5,-972 1005.5,-972 1005.5,-978 999.5,-984 993.5,-984"/>
<text text-anchor="middle" x="891" y="-962.5" font-family="Noto Sans CJK SC" font-size="15.00">三角函数、平面向量与解三角形</text>
</g>
<!-- tri1 -->
<g id="node15" class="node">
<title>tri1</title>
<path fill="#fff2f7" stroke="#425466" stroke-width="1.1" d="M832.5,-895C832.5,-895 705.5,-895 705.5,-895 699.5,-895 693.5,-889 693.5,-883 693.5,-883 693.5,-869 693.5,-869 693.5,-863 699.5,-857 705.5,-857 705.5,-857 832.5,-857 832.5,-857 838.5,-857 844.5,-863 844.5,-869 844.5,-869 844.5,-883 844.5,-883 844.5,-889 838.5,-895 832.5,-895"/>
<text text-anchor="middle" x="769" y="-879.4" font-family="Noto Sans CJK SC" font-size="12.00">角与弧度制</text>
<text text-anchor="middle" x="769" y="-866.4" font-family="Noto Sans CJK SC" font-size="12.00">弧长公式、扇形面积公式</text>
</g>
<!-- tri2 -->
<g id="node16" class="node">
<title>tri2</title>
<path fill="#fff2f7" stroke="#425466" stroke-width="1.1" d="M814.5,-804C814.5,-804 723.5,-804 723.5,-804 717.5,-804 711.5,-798 711.5,-792 711.5,-792 711.5,-765 711.5,-765 711.5,-759 717.5,-753 723.5,-753 723.5,-753 814.5,-753 814.5,-753 820.5,-753 826.5,-759 826.5,-765 826.5,-765 826.5,-792 826.5,-792 826.5,-798 820.5,-804 814.5,-804"/>
<text text-anchor="middle" x="769" y="-788.4" font-family="Noto Sans CJK SC" font-size="12.00">任意角的三角函数</text>
<text text-anchor="middle" x="769" y="-775.4" font-family="Noto Sans CJK SC" font-size="12.00">三角函数线</text>
<text text-anchor="middle" x="769" y="-762.4" font-family="Noto Sans CJK SC" font-size="12.00">同角关系</text>
</g>
<!-- tri3 -->
<g id="node17" class="node">
<title>tri3</title>
<path fill="#fff2f7" stroke="#425466" stroke-width="1.1" d="M832.5,-713C832.5,-713 705.5,-713 705.5,-713 699.5,-713 693.5,-707 693.5,-701 693.5,-701 693.5,-674 693.5,-674 693.5,-668 699.5,-662 705.5,-662 705.5,-662 832.5,-662 832.5,-662 838.5,-662 844.5,-668 844.5,-674 844.5,-674 844.5,-701 844.5,-701 844.5,-707 838.5,-713 832.5,-713"/>
<text text-anchor="middle" x="769" y="-697.4" font-family="Noto Sans CJK SC" font-size="12.00">公式体系</text>
<text text-anchor="middle" x="769" y="-684.4" font-family="Noto Sans CJK SC" font-size="12.00">诱导公式</text>
<text text-anchor="middle" x="769" y="-671.4" font-family="Noto Sans CJK SC" font-size="12.00">和差角公式、二倍角公式</text>
</g>
<!-- tri4 -->
<g id="node18" class="node">
<title>tri4</title>
<path fill="#fff2f7" stroke="#425466" stroke-width="1.1" d="M816.5,-622C816.5,-622 725.5,-622 725.5,-622 719.5,-622 713.5,-616 713.5,-610 713.5,-610 713.5,-583 713.5,-583 713.5,-577 719.5,-571 725.5,-571 725.5,-571 816.5,-571 816.5,-571 822.5,-571 828.5,-577 828.5,-583 828.5,-583 828.5,-610 828.5,-610 828.5,-616 822.5,-622 816.5,-622"/>
<text text-anchor="middle" x="771" y="-606.4" font-family="Noto Sans CJK SC" font-size="12.00">恒等变形方法</text>
<text text-anchor="middle" x="771" y="-593.4" font-family="Noto Sans CJK SC" font-size="12.00">化简、求值、证明</text>
<text text-anchor="middle" x="771" y="-580.4" font-family="Noto Sans CJK SC" font-size="12.00">“1”的代换</text>
</g>
<!-- tri5 -->
<g id="node19" class="node">
<title>tri5</title>
<path fill="#fff2f7" stroke="#425466" stroke-width="1.1" d="M916.5,-531C916.5,-531 705.5,-531 705.5,-531 699.5,-531 693.5,-525 693.5,-519 693.5,-519 693.5,-492 693.5,-492 693.5,-486 699.5,-480 705.5,-480 705.5,-480 916.5,-480 916.5,-480 922.5,-480 928.5,-486 928.5,-492 928.5,-492 928.5,-519 928.5,-519 928.5,-525 922.5,-531 916.5,-531"/>
<text text-anchor="middle" x="811" y="-515.4" font-family="Noto Sans CJK SC" font-size="12.00">三角函数图象与性质</text>
<text text-anchor="middle" x="811" y="-502.4" font-family="Noto Sans CJK SC" font-size="12.00">sin x, cos x, tan x</text>
<text text-anchor="middle" x="811" y="-489.4" font-family="Noto Sans CJK SC" font-size="12.00">定义域、值域、周期、奇偶、单调、最值</text>
</g>
<!-- tri6 -->
<g id="node20" class="node">
<title>tri6</title>
<path fill="#fff2f7" stroke="#425466" stroke-width="1.1" d="M892,-440C892,-440 730,-440 730,-440 724,-440 718,-434 718,-428 718,-428 718,-401 718,-401 718,-395 724,-389 730,-389 730,-389 892,-389 892,-389 898,-389 904,-395 904,-401 904,-401 904,-428 904,-428 904,-434 898,-440 892,-440"/>
<text text-anchor="middle" x="811" y="-424.4" font-family="Noto Sans CJK SC" font-size="12.00">y = A sin(ωx + φ) + b</text>
<text text-anchor="middle" x="811" y="-411.4" font-family="Noto Sans CJK SC" font-size="12.00">平移伸缩、五点法</text>
<text text-anchor="middle" x="811" y="-398.4" font-family="Noto Sans CJK SC" font-size="12.00">T = 2π / |ω|，对称轴 / 对称中心</text>
</g>
<!-- vec1 -->
<g id="node21" class="node">
<title>vec1</title>
<path fill="#fff2f7" stroke="#425466" stroke-width="1.1" d="M993.5,-901.5C993.5,-901.5 878.5,-901.5 878.5,-901.5 872.5,-901.5 866.5,-895.5 866.5,-889.5 866.5,-889.5 866.5,-862.5 866.5,-862.5 866.5,-856.5 872.5,-850.5 878.5,-850.5 878.5,-850.5 993.5,-850.5 993.5,-850.5 999.5,-850.5 1005.5,-856.5 1005.5,-862.5 1005.5,-862.5 1005.5,-889.5 1005.5,-889.5 1005.5,-895.5 999.5,-901.5 993.5,-901.5"/>
<text text-anchor="middle" x="936" y="-885.9" font-family="Noto Sans CJK SC" font-size="12.00">平面向量</text>
<text text-anchor="middle" x="936" y="-872.9" font-family="Noto Sans CJK SC" font-size="12.00">概念、模、坐标表示</text>
<text text-anchor="middle" x="936" y="-859.9" font-family="Noto Sans CJK SC" font-size="12.00">加减、数乘、几何意义</text>
</g>
<!-- vec2 -->
<g id="node22" class="node">
<title>vec2</title>
<path fill="#fff2f7" stroke="#425466" stroke-width="1.1" d="M991.5,-804C991.5,-804 880.5,-804 880.5,-804 874.5,-804 868.5,-798 868.5,-792 868.5,-792 868.5,-765 868.5,-765 868.5,-759 874.5,-753 880.5,-753 880.5,-753 991.5,-753 991.5,-753 997.5,-753 1003.5,-759 1003.5,-765 1003.5,-765 1003.5,-792 1003.5,-792 1003.5,-798 997.5,-804 991.5,-804"/>
<text text-anchor="middle" x="936" y="-788.4" font-family="Noto Sans CJK SC" font-size="12.00">数量积与投影</text>
<text text-anchor="middle" x="936" y="-775.4" font-family="Noto Sans CJK SC" font-size="12.00">cosθ = (a·b) / (|a||b|)</text>
<text text-anchor="middle" x="936" y="-762.4" font-family="Noto Sans CJK SC" font-size="12.00">投影与夹角</text>
</g>
<!-- vec3 -->
<g id="node23" class="node">
<title>vec3</title>
<path fill="#fff2f7" stroke="#425466" stroke-width="1.1" d="M993,-713C993,-713 879,-713 879,-713 873,-713 867,-707 867,-701 867,-701 867,-674 867,-674 867,-668 873,-662 879,-662 879,-662 993,-662 993,-662 999,-662 1005,-668 1005,-674 1005,-674 1005,-701 1005,-701 1005,-707 999,-713 993,-713"/>
<text text-anchor="middle" x="936" y="-697.4" font-family="Noto Sans CJK SC" font-size="12.00">向量关系</text>
<text text-anchor="middle" x="936" y="-684.4" font-family="Noto Sans CJK SC" font-size="12.00">平行：x1y2 − x2y1 = 0</text>
<text text-anchor="middle" x="936" y="-671.4" font-family="Noto Sans CJK SC" font-size="12.00">垂直：x1x2 + y1y2 = 0</text>
</g>
<!-- solve1 -->
<g id="node24" class="node">
<title>solve1</title>
<path fill="#fff2f7" stroke="#425466" stroke-width="1.1" d="M994,-622C994,-622 864,-622 864,-622 858,-622 852,-616 852,-610 852,-610 852,-583 852,-583 852,-577 858,-571 864,-571 864,-571 994,-571 994,-571 1000,-571 1006,-577 1006,-583 1006,-583 1006,-610 1006,-610 1006,-616 1000,-622 994,-622"/>
<text text-anchor="middle" x="929" y="-606.4" font-family="Noto Sans CJK SC" font-size="12.00">解三角形</text>
<text text-anchor="middle" x="929" y="-593.4" font-family="Noto Sans CJK SC" font-size="12.00">正弦定理、余弦定理</text>
<text text-anchor="middle" x="929" y="-580.4" font-family="Noto Sans CJK SC" font-size="12.00">面积公式 S = 1/2 ab sin C</text>
</g>
<!-- solve2 -->
<g id="node25" class="node">
<title>solve2</title>
<path fill="#fff2f7" stroke="#425466" stroke-width="1.1" d="M993.5,-147.5C993.5,-147.5 878.5,-147.5 878.5,-147.5 872.5,-147.5 866.5,-141.5 866.5,-135.5 866.5,-135.5 866.5,-121.5 866.5,-121.5 866.5,-115.5 872.5,-109.5 878.5,-109.5 878.5,-109.5 993.5,-109.5 993.5,-109.5 999.5,-109.5 1005.5,-115.5 1005.5,-121.5 1005.5,-121.5 1005.5,-135.5 1005.5,-135.5 1005.5,-141.5 999.5,-147.5 993.5,-147.5"/>
<text text-anchor="middle" x="936" y="-131.9" font-family="Noto Sans CJK SC" font-size="12.00">实际应用</text>
<text text-anchor="middle" x="936" y="-118.9" font-family="Noto Sans CJK SC" font-size="12.00">测量、定位、几何综合</text>
</g>
<!-- q0 -->
<g id="node26" class="node">
<title>q0</title>
<path fill="#d9f6e8" stroke="#2f9e73" stroke-width="1.6" d="M1602,-984C1602,-984 1472,-984 1472,-984 1466,-984 1460,-978 1460,-972 1460,-972 1460,-960 1460,-960 1460,-954 1466,-948 1472,-948 1472,-948 1602,-948 1602,-948 1608,-948 1614,-954 1614,-960 1614,-960 1614,-972 1614,-972 1614,-978 1608,-984 1602,-984"/>
<text text-anchor="middle" x="1537" y="-962.5" font-family="Noto Sans CJK SC" font-size="15.00">数列、不等式与优化</text>
</g>
<!-- seq1 -->
<g id="node27" class="node">
<title>seq1</title>
<path fill="#f2fff8" stroke="#425466" stroke-width="1.1" d="M1383.5,-901.5C1383.5,-901.5 1220.5,-901.5 1220.5,-901.5 1214.5,-901.5 1208.5,-895.5 1208.5,-889.5 1208.5,-889.5 1208.5,-862.5 1208.5,-862.5 1208.5,-856.5 1214.5,-850.5 1220.5,-850.5 1220.5,-850.5 1383.5,-850.5 1383.5,-850.5 1389.5,-850.5 1395.5,-856.5 1395.5,-862.5 1395.5,-862.5 1395.5,-889.5 1395.5,-889.5 1395.5,-895.5 1389.5,-901.5 1383.5,-901.5"/>
<text text-anchor="middle" x="1302" y="-885.9" font-family="Noto Sans CJK SC" font-size="12.00">数列</text>
<text text-anchor="middle" x="1302" y="-872.9" font-family="Noto Sans CJK SC" font-size="12.00">表示：通项、递推、图象、列表</text>
<text text-anchor="middle" x="1302" y="-859.9" font-family="Noto Sans CJK SC" font-size="12.00">数列是特殊的函数</text>
</g>
<!-- seq2 -->
<g id="node28" class="node">
<title>seq2</title>
<path fill="#f2fff8" stroke="#425466" stroke-width="1.1" d="M1137.5,-804C1137.5,-804 1042.5,-804 1042.5,-804 1036.5,-804 1030.5,-798 1030.5,-792 1030.5,-792 1030.5,-765 1030.5,-765 1030.5,-759 1036.5,-753 1042.5,-753 1042.5,-753 1137.5,-753 1137.5,-753 1143.5,-753 1149.5,-759 1149.5,-765 1149.5,-765 1149.5,-792 1149.5,-792 1149.5,-798 1143.5,-804 1137.5,-804"/>
<text text-anchor="middle" x="1090" y="-788.4" font-family="Noto Sans CJK SC" font-size="12.00">等差数列</text>
<text text-anchor="middle" x="1090" y="-775.4" font-family="Noto Sans CJK SC" font-size="12.00">an = a1 + (n − 1)d</text>
<text text-anchor="middle" x="1090" y="-762.4" font-family="Noto Sans CJK SC" font-size="12.00">Sn = n(a1 + an) / 2</text>
</g>
<!-- seq3 -->
<g id="node29" class="node">
<title>seq3</title>
<path fill="#f2fff8" stroke="#425466" stroke-width="1.1" d="M1420.5,-804C1420.5,-804 1183.5,-804 1183.5,-804 1177.5,-804 1171.5,-798 1171.5,-792 1171.5,-792 1171.5,-765 1171.5,-765 1171.5,-759 1177.5,-753 1183.5,-753 1183.5,-753 1420.5,-753 1420.5,-753 1426.5,-753 1432.5,-759 1432.5,-765 1432.5,-765 1432.5,-792 1432.5,-792 1432.5,-798 1426.5,-804 1420.5,-804"/>
<text text-anchor="middle" x="1302" y="-788.4" font-family="Noto Sans CJK SC" font-size="12.00">等比数列</text>
<text text-anchor="middle" x="1302" y="-775.4" font-family="Noto Sans CJK SC" font-size="12.00">an = a1 q^(n − 1)</text>
<text text-anchor="middle" x="1302" y="-762.4" font-family="Noto Sans CJK SC" font-size="12.00">Sn = na1 (q = 1)；a1(1 − q^n)/(1 − q) (q ≠ 1)</text>
</g>
<!-- seq4 -->
<g id="node30" class="node">
<title>seq4</title>
<path fill="#f2fff8" stroke="#425466" stroke-width="1.1" d="M1258.5,-713C1258.5,-713 1131.5,-713 1131.5,-713 1125.5,-713 1119.5,-707 1119.5,-701 1119.5,-701 1119.5,-674 1119.5,-674 1119.5,-668 1125.5,-662 1131.5,-662 1131.5,-662 1258.5,-662 1258.5,-662 1264.5,-662 1270.5,-668 1270.5,-674 1270.5,-674 1270.5,-701 1270.5,-701 1270.5,-707 1264.5,-713 1258.5,-713"/>
<text text-anchor="middle" x="1195" y="-697.4" font-family="Noto Sans CJK SC" font-size="12.00">数列性质</text>
<text text-anchor="middle" x="1195" y="-684.4" font-family="Noto Sans CJK SC" font-size="12.00">等差：an + am = ap + ar</text>
<text text-anchor="middle" x="1195" y="-671.4" font-family="Noto Sans CJK SC" font-size="12.00">等比：an·am = ap·ar</text>
</g>
<!-- seq5 -->
<g id="node31" class="node">
<title>seq5</title>
<path fill="#f2fff8" stroke="#425466" stroke-width="1.1" d="M1282.5,-622C1282.5,-622 1107.5,-622 1107.5,-622 1101.5,-622 1095.5,-616 1095.5,-610 1095.5,-610 1095.5,-583 1095.5,-583 1095.5,-577 1101.5,-571 1107.5,-571 1107.5,-571 1282.5,-571 1282.5,-571 1288.5,-571 1294.5,-577 1294.5,-583 1294.5,-583 1294.5,-610 1294.5,-610 1294.5,-616 1288.5,-622 1282.5,-622"/>
<text text-anchor="middle" x="1195" y="-606.4" font-family="Noto Sans CJK SC" font-size="12.00">递推与求和方法</text>
<text text-anchor="middle" x="1195" y="-593.4" font-family="Noto Sans CJK SC" font-size="12.00">作差、作商、构造等差 / 等比</text>
<text text-anchor="middle" x="1195" y="-580.4" font-family="Noto Sans CJK SC" font-size="12.00">倒序相加、分组、裂项、错位相减</text>
</g>
<!-- ineq1 -->
<g id="node32" class="node">
<title>ineq1</title>
<path fill="#f2fff8" stroke="#425466" stroke-width="1.1" d="M1576.5,-901.5C1576.5,-901.5 1497.5,-901.5 1497.5,-901.5 1491.5,-901.5 1485.5,-895.5 1485.5,-889.5 1485.5,-889.5 1485.5,-862.5 1485.5,-862.5 1485.5,-856.5 1491.5,-850.5 1497.5,-850.5 1497.5,-850.5 1576.5,-850.5 1576.5,-850.5 1582.5,-850.5 1588.5,-856.5 1588.5,-862.5 1588.5,-862.5 1588.5,-889.5 1588.5,-889.5 1588.5,-895.5 1582.5,-901.5 1576.5,-901.5"/>
<text text-anchor="middle" x="1537" y="-885.9" font-family="Noto Sans CJK SC" font-size="12.00">不等式</text>
<text text-anchor="middle" x="1537" y="-872.9" font-family="Noto Sans CJK SC" font-size="12.00">性质与比较</text>
<text text-anchor="middle" x="1537" y="-859.9" font-family="Noto Sans CJK SC" font-size="12.00">一元二次不等式</text>
</g>
<!-- ineq2 -->
<g id="node33" class="node">
<title>ineq2</title>
<path fill="#f2fff8" stroke="#425466" stroke-width="1.1" d="M1607.5,-804C1607.5,-804 1466.5,-804 1466.5,-804 1460.5,-804 1454.5,-798 1454.5,-792 1454.5,-792 1454.5,-765 1454.5,-765 1454.5,-759 1460.5,-753 1466.5,-753 1466.5,-753 1607.5,-753 1607.5,-753 1613.5,-753 1619.5,-759 1619.5,-765 1619.5,-765 1619.5,-792 1619.5,-792 1619.5,-798 1613.5,-804 1607.5,-804"/>
<text text-anchor="middle" x="1537" y="-788.4" font-family="Noto Sans CJK SC" font-size="12.00">基本不等式</text>
<text text-anchor="middle" x="1537" y="-775.4" font-family="Noto Sans CJK SC" font-size="12.00">√ab ≤ (a + b) / 2 &#160;(a,b &gt; 0)</text>
<text text-anchor="middle" x="1537" y="-762.4" font-family="Noto Sans CJK SC" font-size="12.00">等号条件：a = b</text>
</g>
<!-- ineq3 -->
<g id="node34" class="node">
<title>ineq3</title>
<path fill="#f2fff8" stroke="#425466" stroke-width="1.1" d="M1608,-706.5C1608,-706.5 1370,-706.5 1370,-706.5 1364,-706.5 1358,-700.5 1358,-694.5 1358,-694.5 1358,-680.5 1358,-680.5 1358,-674.5 1364,-668.5 1370,-668.5 1370,-668.5 1608,-668.5 1608,-668.5 1614,-668.5 1620,-674.5 1620,-680.5 1620,-680.5 1620,-694.5 1620,-694.5 1620,-700.5 1614,-706.5 1608,-706.5"/>
<text text-anchor="middle" x="1489" y="-690.9" font-family="Noto Sans CJK SC" font-size="12.00">常用链式关系</text>
<text text-anchor="middle" x="1489" y="-677.9" font-family="Noto Sans CJK SC" font-size="12.00">2ab/(a+b) ≤ √ab ≤ (a+b)/2 ≤ √((a²+b²)/2)</text>
</g>
<!-- lp1 -->
<g id="node35" class="node">
<title>lp1</title>
<path fill="#f2fff8" stroke="#425466" stroke-width="1.1" d="M1543.5,-622C1543.5,-622 1452.5,-622 1452.5,-622 1446.5,-622 1440.5,-616 1440.5,-610 1440.5,-610 1440.5,-583 1440.5,-583 1440.5,-577 1446.5,-571 1452.5,-571 1452.5,-571 1543.5,-571 1543.5,-571 1549.5,-571 1555.5,-577 1555.5,-583 1555.5,-583 1555.5,-610 1555.5,-610 1555.5,-616 1549.5,-622 1543.5,-622"/>
<text text-anchor="middle" x="1498" y="-606.4" font-family="Noto Sans CJK SC" font-size="12.00">简单线性规划</text>
<text text-anchor="middle" x="1498" y="-593.4" font-family="Noto Sans CJK SC" font-size="12.00">可行域、目标函数</text>
<text text-anchor="middle" x="1498" y="-580.4" font-family="Noto Sans CJK SC" font-size="12.00">斜率法、距离法</text>
</g>
<!-- opt1 -->
<g id="node36" class="node">
<title>opt1</title>
<path fill="#f2fff8" stroke="#425466" stroke-width="1.1" d="M1597.5,-342.5C1597.5,-342.5 1506.5,-342.5 1506.5,-342.5 1500.5,-342.5 1494.5,-336.5 1494.5,-330.5 1494.5,-330.5 1494.5,-303.5 1494.5,-303.5 1494.5,-297.5 1500.5,-291.5 1506.5,-291.5 1506.5,-291.5 1597.5,-291.5 1597.5,-291.5 1603.5,-291.5 1609.5,-297.5 1609.5,-303.5 1609.5,-303.5 1609.5,-330.5 1609.5,-330.5 1609.5,-336.5 1603.5,-342.5 1597.5,-342.5"/>
<text text-anchor="middle" x="1552" y="-326.9" font-family="Noto Sans CJK SC" font-size="12.00">最值方法</text>
<text text-anchor="middle" x="1552" y="-313.9" font-family="Noto Sans CJK SC" font-size="12.00">二次函数图象</text>
<text text-anchor="middle" x="1552" y="-300.9" font-family="Noto Sans CJK SC" font-size="12.00">均值不等式与导数</text>
</g>
<!-- g0 -->
<g id="node37" class="node">
<title>g0</title>
<path fill="#fde8d8" stroke="#d17a3b" stroke-width="1.6" d="M1759.5,-984C1759.5,-984 1704.5,-984 1704.5,-984 1698.5,-984 1692.5,-978 1692.5,-972 1692.5,-972 1692.5,-960 1692.5,-960 1692.5,-954 1698.5,-948 1704.5,-948 1704.5,-948 1759.5,-948 1759.5,-948 1765.5,-948 1771.5,-954 1771.5,-960 1771.5,-960 1771.5,-972 1771.5,-972 1771.5,-978 1765.5,-984 1759.5,-984"/>
<text text-anchor="middle" x="1732" y="-962.5" font-family="Noto Sans CJK SC" font-size="15.00">解析几何</text>
</g>
<!-- line1 -->
<g id="node38" class="node">
<title>line1</title>
<path fill="#fff7f1" stroke="#425466" stroke-width="1.1" d="M1783.5,-895C1783.5,-895 1680.5,-895 1680.5,-895 1674.5,-895 1668.5,-889 1668.5,-883 1668.5,-883 1668.5,-869 1668.5,-869 1668.5,-863 1674.5,-857 1680.5,-857 1680.5,-857 1783.5,-857 1783.5,-857 1789.5,-857 1795.5,-863 1795.5,-869 1795.5,-869 1795.5,-883 1795.5,-883 1795.5,-889 1789.5,-895 1783.5,-895"/>
<text text-anchor="middle" x="1732" y="-879.4" font-family="Noto Sans CJK SC" font-size="12.00">直线</text>
<text text-anchor="middle" x="1732" y="-866.4" font-family="Noto Sans CJK SC" font-size="12.00">倾斜角、斜率、截距</text>
</g>
<!-- line2 -->
<g id="node39" class="node">
<title>line2</title>
<path fill="#fff7f1" stroke="#425466" stroke-width="1.1" d="M1795.5,-804C1795.5,-804 1668.5,-804 1668.5,-804 1662.5,-804 1656.5,-798 1656.5,-792 1656.5,-792 1656.5,-765 1656.5,-765 1656.5,-759 1662.5,-753 1668.5,-753 1668.5,-753 1795.5,-753 1795.5,-753 1801.5,-753 1807.5,-759 1807.5,-765 1807.5,-765 1807.5,-792 1807.5,-792 1807.5,-798 1801.5,-804 1795.5,-804"/>
<text text-anchor="middle" x="1732" y="-788.4" font-family="Noto Sans CJK SC" font-size="12.00">直线方程形式</text>
<text text-anchor="middle" x="1732" y="-775.4" font-family="Noto Sans CJK SC" font-size="12.00">点斜式、斜截式、两点式</text>
<text text-anchor="middle" x="1732" y="-762.4" font-family="Noto Sans CJK SC" font-size="12.00">截距式、一般式</text>
</g>
<!-- line3 -->
<g id="node40" class="node">
<title>line3</title>
<path fill="#fff7f1" stroke="#425466" stroke-width="1.1" d="M1806.5,-713C1806.5,-713 1657.5,-713 1657.5,-713 1651.5,-713 1645.5,-707 1645.5,-701 1645.5,-701 1645.5,-674 1645.5,-674 1645.5,-668 1651.5,-662 1657.5,-662 1657.5,-662 1806.5,-662 1806.5,-662 1812.5,-662 1818.5,-668 1818.5,-674 1818.5,-674 1818.5,-701 1818.5,-701 1818.5,-707 1812.5,-713 1806.5,-713"/>
<text text-anchor="middle" x="1732" y="-697.4" font-family="Noto Sans CJK SC" font-size="12.00">位置关系</text>
<text text-anchor="middle" x="1732" y="-684.4" font-family="Noto Sans CJK SC" font-size="12.00">平行 / 相交 / 重合 / 垂直</text>
<text text-anchor="middle" x="1732" y="-671.4" font-family="Noto Sans CJK SC" font-size="12.00">A1B2 − A2B1，A1A2 + B1B2</text>
</g>
<!-- line4 -->
<g id="node41" class="node">
<title>line4</title>
<path fill="#fff7f1" stroke="#425466" stroke-width="1.1" d="M1765.5,-622C1765.5,-622 1698.5,-622 1698.5,-622 1692.5,-622 1686.5,-616 1686.5,-610 1686.5,-610 1686.5,-583 1686.5,-583 1686.5,-577 1692.5,-571 1698.5,-571 1698.5,-571 1765.5,-571 1765.5,-571 1771.5,-571 1777.5,-577 1777.5,-583 1777.5,-583 1777.5,-610 1777.5,-610 1777.5,-616 1771.5,-622 1765.5,-622"/>
<text text-anchor="middle" x="1732" y="-606.4" font-family="Noto Sans CJK SC" font-size="12.00">距离与交点</text>
<text text-anchor="middle" x="1732" y="-593.4" font-family="Noto Sans CJK SC" font-size="12.00">点到直线距离</text>
<text text-anchor="middle" x="1732" y="-580.4" font-family="Noto Sans CJK SC" font-size="12.00">平行线间距离</text>
</g>
<!-- circle1 -->
<g id="node42" class="node">
<title>circle1</title>
<path fill="#fff7f1" stroke="#425466" stroke-width="1.1" d="M1807.5,-531C1807.5,-531 1656.5,-531 1656.5,-531 1650.5,-531 1644.5,-525 1644.5,-519 1644.5,-519 1644.5,-492 1644.5,-492 1644.5,-486 1650.5,-480 1656.5,-480 1656.5,-480 1807.5,-480 1807.5,-480 1813.5,-480 1819.5,-486 1819.5,-492 1819.5,-492 1819.5,-519 1819.5,-519 1819.5,-525 1813.5,-531 1807.5,-531"/>
<text text-anchor="middle" x="1732" y="-515.4" font-family="Noto Sans CJK SC" font-size="12.00">圆</text>
<text text-anchor="middle" x="1732" y="-502.4" font-family="Noto Sans CJK SC" font-size="12.00">标准方程、一般方程</text>
<text text-anchor="middle" x="1732" y="-489.4" font-family="Noto Sans CJK SC" font-size="12.00">直线与圆、圆与圆的位置关系</text>
</g>
<!-- conic1 -->
<g id="node43" class="node">
<title>conic1</title>
<path fill="#fff7f1" stroke="#425466" stroke-width="1.1" d="M1790.5,-440C1790.5,-440 1675.5,-440 1675.5,-440 1669.5,-440 1663.5,-434 1663.5,-428 1663.5,-428 1663.5,-401 1663.5,-401 1663.5,-395 1669.5,-389 1675.5,-389 1675.5,-389 1790.5,-389 1790.5,-389 1796.5,-389 1802.5,-395 1802.5,-401 1802.5,-401 1802.5,-428 1802.5,-428 1802.5,-434 1796.5,-440 1790.5,-440"/>
<text text-anchor="middle" x="1733" y="-424.4" font-family="Noto Sans CJK SC" font-size="12.00">圆锥曲线</text>
<text text-anchor="middle" x="1733" y="-411.4" font-family="Noto Sans CJK SC" font-size="12.00">椭圆、双曲线、抛物线</text>
<text text-anchor="middle" x="1733" y="-398.4" font-family="Noto Sans CJK SC" font-size="12.00">定义、标准方程</text>
</g>
<!-- conic2 -->
<g id="node44" class="node">
<title>conic2</title>
<path fill="#fff7f1" stroke="#425466" stroke-width="1.1" d="M1804.5,-342.5C1804.5,-342.5 1667.5,-342.5 1667.5,-342.5 1661.5,-342.5 1655.5,-336.5 1655.5,-330.5 1655.5,-330.5 1655.5,-303.5 1655.5,-303.5 1655.5,-297.5 1661.5,-291.5 1667.5,-291.5 1667.5,-291.5 1804.5,-291.5 1804.5,-291.5 1810.5,-291.5 1816.5,-297.5 1816.5,-303.5 1816.5,-303.5 1816.5,-330.5 1816.5,-330.5 1816.5,-336.5 1810.5,-342.5 1804.5,-342.5"/>
<text text-anchor="middle" x="1736" y="-326.9" font-family="Noto Sans CJK SC" font-size="12.00">性质</text>
<text text-anchor="middle" x="1736" y="-313.9" font-family="Noto Sans CJK SC" font-size="12.00">顶点、焦点、离心率</text>
<text text-anchor="middle" x="1736" y="-300.9" font-family="Noto Sans CJK SC" font-size="12.00">长轴 / 短轴、渐近线、准线</text>
</g>
<!-- conic3 -->
<g id="node45" class="node">
<title>conic3</title>
<path fill="#fff7f1" stroke="#425466" stroke-width="1.1" d="M1806.5,-238.5C1806.5,-238.5 1667.5,-238.5 1667.5,-238.5 1661.5,-238.5 1655.5,-232.5 1655.5,-226.5 1655.5,-226.5 1655.5,-212.5 1655.5,-212.5 1655.5,-206.5 1661.5,-200.5 1667.5,-200.5 1667.5,-200.5 1806.5,-200.5 1806.5,-200.5 1812.5,-200.5 1818.5,-206.5 1818.5,-212.5 1818.5,-212.5 1818.5,-226.5 1818.5,-226.5 1818.5,-232.5 1812.5,-238.5 1806.5,-238.5"/>
<text text-anchor="middle" x="1737" y="-222.9" font-family="Noto Sans CJK SC" font-size="12.00">轨迹方程方法</text>
<text text-anchor="middle" x="1737" y="-209.9" font-family="Noto Sans CJK SC" font-size="12.00">直接法、定义法、相关点法</text>
</g>
<!-- sym1 -->
<g id="node46" class="node">
<title>sym1</title>
<path fill="#fff7f1" stroke="#425466" stroke-width="1.1" d="M1795.5,-154C1795.5,-154 1704.5,-154 1704.5,-154 1698.5,-154 1692.5,-148 1692.5,-142 1692.5,-142 1692.5,-115 1692.5,-115 1692.5,-109 1698.5,-103 1704.5,-103 1704.5,-103 1795.5,-103 1795.5,-103 1801.5,-103 1807.5,-109 1807.5,-115 1807.5,-115 1807.5,-142 1807.5,-142 1807.5,-148 1801.5,-154 1795.5,-154"/>
<text text-anchor="middle" x="1750" y="-138.4" font-family="Noto Sans CJK SC" font-size="12.00">对称性问题</text>
<text text-anchor="middle" x="1750" y="-125.4" font-family="Noto Sans CJK SC" font-size="12.00">中心对称、轴对称</text>
<text text-anchor="middle" x="1750" y="-112.4" font-family="Noto Sans CJK SC" font-size="12.00">代入法与坐标变换</text>
</g>
<!-- s0 -->
<g id="node47" class="node">
<title>s0</title>
<path fill="#e8f4d8" stroke="#7a9c37" stroke-width="1.6" d="M1994,-984C1994,-984 1864,-984 1864,-984 1858,-984 1852,-978 1852,-972 1852,-972 1852,-960 1852,-960 1852,-954 1858,-948 1864,-948 1864,-948 1994,-948 1994,-948 2000,-948 2006,-954 2006,-960 2006,-960 2006,-972 2006,-972 2006,-978 2000,-984 1994,-984"/>
<text text-anchor="middle" x="1929" y="-962.5" font-family="Noto Sans CJK SC" font-size="15.00">立体几何与空间向量</text>
</g>
<!-- solid1 -->
<g id="node48" class="node">
<title>solid1</title>
<path fill="#f8fff0" stroke="#425466" stroke-width="1.1" d="M1989.5,-895C1989.5,-895 1874.5,-895 1874.5,-895 1868.5,-895 1862.5,-889 1862.5,-883 1862.5,-883 1862.5,-869 1862.5,-869 1862.5,-863 1868.5,-857 1874.5,-857 1874.5,-857 1989.5,-857 1989.5,-857 1995.5,-857 2001.5,-863 2001.5,-869 2001.5,-869 2001.5,-883 2001.5,-883 2001.5,-889 1995.5,-895 1989.5,-895"/>
<text text-anchor="middle" x="1932" y="-879.4" font-family="Noto Sans CJK SC" font-size="12.00">空间几何体</text>
<text text-anchor="middle" x="1932" y="-866.4" font-family="Noto Sans CJK SC" font-size="12.00">柱体、锥体、台体、球</text>
</g>
<!-- solid2 -->
<g id="node49" class="node">
<title>solid2</title>
<path fill="#f8fff0" stroke="#425466" stroke-width="1.1" d="M1993.5,-797.5C1993.5,-797.5 1878.5,-797.5 1878.5,-797.5 1872.5,-797.5 1866.5,-791.5 1866.5,-785.5 1866.5,-785.5 1866.5,-771.5 1866.5,-771.5 1866.5,-765.5 1872.5,-759.5 1878.5,-759.5 1878.5,-759.5 1993.5,-759.5 1993.5,-759.5 1999.5,-759.5 2005.5,-765.5 2005.5,-771.5 2005.5,-771.5 2005.5,-785.5 2005.5,-785.5 2005.5,-791.5 1999.5,-797.5 1993.5,-797.5"/>
<text text-anchor="middle" x="1936" y="-781.9" font-family="Noto Sans CJK SC" font-size="12.00">三视图与直观图</text>
<text text-anchor="middle" x="1936" y="-768.9" font-family="Noto Sans CJK SC" font-size="12.00">表面积、侧面积、体积</text>
</g>
<!-- pos1 -->
<g id="node50" class="node">
<title>pos1</title>
<path fill="#f8fff0" stroke="#425466" stroke-width="1.1" d="M2021.5,-706.5C2021.5,-706.5 1858.5,-706.5 1858.5,-706.5 1852.5,-706.5 1846.5,-700.5 1846.5,-694.5 1846.5,-694.5 1846.5,-680.5 1846.5,-680.5 1846.5,-674.5 1852.5,-668.5 1858.5,-668.5 1858.5,-668.5 2021.5,-668.5 2021.5,-668.5 2027.5,-668.5 2033.5,-674.5 2033.5,-680.5 2033.5,-680.5 2033.5,-694.5 2033.5,-694.5 2033.5,-700.5 2027.5,-706.5 2021.5,-706.5"/>
<text text-anchor="middle" x="1940" y="-690.9" font-family="Noto Sans CJK SC" font-size="12.00">点、线、面的位置关系</text>
<text text-anchor="middle" x="1940" y="-677.9" font-family="Noto Sans CJK SC" font-size="12.00">点线、点面、线线、线面、面面</text>
</g>
<!-- pos2 -->
<g id="node51" class="node">
<title>pos2</title>
<path fill="#f8fff0" stroke="#425466" stroke-width="1.1" d="M2031.5,-622C2031.5,-622 1856.5,-622 1856.5,-622 1850.5,-622 1844.5,-616 1844.5,-610 1844.5,-610 1844.5,-583 1844.5,-583 1844.5,-577 1850.5,-571 1856.5,-571 1856.5,-571 2031.5,-571 2031.5,-571 2037.5,-571 2043.5,-577 2043.5,-583 2043.5,-583 2043.5,-610 2043.5,-610 2043.5,-616 2037.5,-622 2031.5,-622"/>
<text text-anchor="middle" x="1944" y="-606.4" font-family="Noto Sans CJK SC" font-size="12.00">平行与垂直的判定与性质</text>
<text text-anchor="middle" x="1944" y="-593.4" font-family="Noto Sans CJK SC" font-size="12.00">线线平行 ↔ 线面平行 ↔ 面面平行</text>
<text text-anchor="middle" x="1944" y="-580.4" font-family="Noto Sans CJK SC" font-size="12.00">线线垂直 ↔ 线面垂直 ↔ 面面垂直</text>
</g>
<!-- spacev1 -->
<g id="node52" class="node">
<title>spacev1</title>
<path fill="#f8fff0" stroke="#425466" stroke-width="1.1" d="M2012.5,-531C2012.5,-531 1873.5,-531 1873.5,-531 1867.5,-531 1861.5,-525 1861.5,-519 1861.5,-519 1861.5,-492 1861.5,-492 1861.5,-486 1867.5,-480 1873.5,-480 1873.5,-480 2012.5,-480 2012.5,-480 2018.5,-480 2024.5,-486 2024.5,-492 2024.5,-492 2024.5,-519 2024.5,-519 2024.5,-525 2018.5,-531 2012.5,-531"/>
<text text-anchor="middle" x="1943" y="-515.4" font-family="Noto Sans CJK SC" font-size="12.00">空间直角坐标系与空间向量</text>
<text text-anchor="middle" x="1943" y="-502.4" font-family="Noto Sans CJK SC" font-size="12.00">数量积、法向量</text>
<text text-anchor="middle" x="1943" y="-489.4" font-family="Noto Sans CJK SC" font-size="12.00">向量化处理空间问题</text>
</g>
<!-- ang1 -->
<g id="node53" class="node">
<title>ang1</title>
<path fill="#f8fff0" stroke="#425466" stroke-width="1.1" d="M2018.5,-440C2018.5,-440 1867.5,-440 1867.5,-440 1861.5,-440 1855.5,-434 1855.5,-428 1855.5,-428 1855.5,-401 1855.5,-401 1855.5,-395 1861.5,-389 1867.5,-389 1867.5,-389 2018.5,-389 2018.5,-389 2024.5,-389 2030.5,-395 2030.5,-401 2030.5,-401 2030.5,-428 2030.5,-428 2030.5,-434 2024.5,-440 2018.5,-440"/>
<text text-anchor="middle" x="1943" y="-424.4" font-family="Noto Sans CJK SC" font-size="12.00">空间角</text>
<text text-anchor="middle" x="1943" y="-411.4" font-family="Noto Sans CJK SC" font-size="12.00">异面直线角、线面角、二面角</text>
<text text-anchor="middle" x="1943" y="-398.4" font-family="Noto Sans CJK SC" font-size="12.00">范围判定与转化</text>
</g>
<!-- ang2 -->
<g id="node54" class="node">
<title>ang2</title>
<path fill="#f8fff0" stroke="#425466" stroke-width="1.1" d="M2006,-349C2006,-349 1874,-349 1874,-349 1868,-349 1862,-343 1862,-337 1862,-337 1862,-297 1862,-297 1862,-291 1868,-285 1874,-285 1874,-285 2006,-285 2006,-285 2012,-285 2018,-291 2018,-297 2018,-297 2018,-337 2018,-337 2018,-343 2012,-349 2006,-349"/>
<text text-anchor="middle" x="1940" y="-333.4" font-family="Noto Sans CJK SC" font-size="12.00">向量公式</text>
<text text-anchor="middle" x="1940" y="-320.4" font-family="Noto Sans CJK SC" font-size="12.00">cosθ = |a·b|/(|a||b|)</text>
<text text-anchor="middle" x="1940" y="-307.4" font-family="Noto Sans CJK SC" font-size="12.00">sinθ = |a·n|/(|a||n|)</text>
<text text-anchor="middle" x="1940" y="-294.4" font-family="Noto Sans CJK SC" font-size="12.00">cosθ = |n1·n2|/(|n1||n2|)</text>
</g>
<!-- dist1 -->
<g id="node55" class="node">
<title>dist1</title>
<path fill="#f8fff0" stroke="#425466" stroke-width="1.1" d="M2019.5,-154C2019.5,-154 1856.5,-154 1856.5,-154 1850.5,-154 1844.5,-148 1844.5,-142 1844.5,-142 1844.5,-115 1844.5,-115 1844.5,-109 1850.5,-103 1856.5,-103 1856.5,-103 2019.5,-103 2019.5,-103 2025.5,-103 2031.5,-109 2031.5,-115 2031.5,-115 2031.5,-142 2031.5,-142 2031.5,-148 2025.5,-154 2019.5,-154"/>
<text text-anchor="middle" x="1938" y="-138.4" font-family="Noto Sans CJK SC" font-size="12.00">空间距离</text>
<text text-anchor="middle" x="1938" y="-125.4" font-family="Noto Sans CJK SC" font-size="12.00">点到面、线到面、平行面间距离</text>
<text text-anchor="middle" x="1938" y="-112.4" font-family="Noto Sans CJK SC" font-size="12.00">转化思想</text>
</g>
<!-- p0 -->
<g id="node56" class="node">
<title>p0</title>
<path fill="#fff1b8" stroke="#c49b08" stroke-width="1.6" d="M2179,-984C2179,-984 2109,-984 2109,-984 2103,-984 2097,-978 2097,-972 2097,-972 2097,-960 2097,-960 2097,-954 2103,-948 2109,-948 2109,-948 2179,-948 2179,-948 2185,-948 2191,-954 2191,-960 2191,-960 2191,-972 2191,-972 2191,-978 2185,-984 2179,-984"/>
<text text-anchor="middle" x="2144" y="-962.5" font-family="Noto Sans CJK SC" font-size="15.00">统计与概率</text>
</g>
<!-- stat1 -->
<g id="node57" class="node">
<title>stat1</title>
<path fill="#fffdf1" stroke="#425466" stroke-width="1.1" d="M2273.5,-895C2273.5,-895 2086.5,-895 2086.5,-895 2080.5,-895 2074.5,-889 2074.5,-883 2074.5,-883 2074.5,-869 2074.5,-869 2074.5,-863 2080.5,-857 2086.5,-857 2086.5,-857 2273.5,-857 2273.5,-857 2279.5,-857 2285.5,-863 2285.5,-869 2285.5,-869 2285.5,-883 2285.5,-883 2285.5,-889 2279.5,-895 2273.5,-895"/>
<text text-anchor="middle" x="2180" y="-879.4" font-family="Noto Sans CJK SC" font-size="12.00">随机抽样</text>
<text text-anchor="middle" x="2180" y="-866.4" font-family="Noto Sans CJK SC" font-size="12.00">简单随机抽样、系统抽样、分层抽样</text>
</g>
<!-- stat2 -->
<g id="node58" class="node">
<title>stat2</title>
<path fill="#fffdf1" stroke="#425466" stroke-width="1.1" d="M2291.5,-804C2291.5,-804 2080.5,-804 2080.5,-804 2074.5,-804 2068.5,-798 2068.5,-792 2068.5,-792 2068.5,-765 2068.5,-765 2068.5,-759 2074.5,-753 2080.5,-753 2080.5,-753 2291.5,-753 2291.5,-753 2297.5,-753 2303.5,-759 2303.5,-765 2303.5,-765 2303.5,-792 2303.5,-792 2303.5,-798 2297.5,-804 2291.5,-804"/>
<text text-anchor="middle" x="2186" y="-788.4" font-family="Noto Sans CJK SC" font-size="12.00">用样本估计总体</text>
<text text-anchor="middle" x="2186" y="-775.4" font-family="Noto Sans CJK SC" font-size="12.00">频率分布表 / 直方图 / 茎叶图</text>
<text text-anchor="middle" x="2186" y="-762.4" font-family="Noto Sans CJK SC" font-size="12.00">样本均值、中位数、众数、方差、标准差</text>
</g>
<!-- stat3 -->
<g id="node59" class="node">
<title>stat3</title>
<path fill="#fffdf1" stroke="#425466" stroke-width="1.1" d="M2256.5,-713C2256.5,-713 2113.5,-713 2113.5,-713 2107.5,-713 2101.5,-707 2101.5,-701 2101.5,-701 2101.5,-674 2101.5,-674 2101.5,-668 2107.5,-662 2113.5,-662 2113.5,-662 2256.5,-662 2256.5,-662 2262.5,-662 2268.5,-668 2268.5,-674 2268.5,-674 2268.5,-701 2268.5,-701 2268.5,-707 2262.5,-713 2256.5,-713"/>
<text text-anchor="middle" x="2185" y="-697.4" font-family="Noto Sans CJK SC" font-size="12.00">变量相关关系</text>
<text text-anchor="middle" x="2185" y="-684.4" font-family="Noto Sans CJK SC" font-size="12.00">散点图、线性回归</text>
<text text-anchor="middle" x="2185" y="-671.4" font-family="Noto Sans CJK SC" font-size="12.00">独立性检验（2×2 列联表）</text>
</g>
<!-- stat4 -->
<g id="node60" class="node">
<title>stat4</title>
<path fill="#fffdf1" stroke="#425466" stroke-width="1.1" d="M2216.5,-622C2216.5,-622 2149.5,-622 2149.5,-622 2143.5,-622 2137.5,-616 2137.5,-610 2137.5,-610 2137.5,-583 2137.5,-583 2137.5,-577 2143.5,-571 2149.5,-571 2149.5,-571 2216.5,-571 2216.5,-571 2222.5,-571 2228.5,-577 2228.5,-583 2228.5,-583 2228.5,-610 2228.5,-610 2228.5,-616 2222.5,-622 2216.5,-622"/>
<text text-anchor="middle" x="2183" y="-606.4" font-family="Noto Sans CJK SC" font-size="12.00">正态分布</text>
<text text-anchor="middle" x="2183" y="-593.4" font-family="Noto Sans CJK SC" font-size="12.00">总体密度曲线</text>
<text text-anchor="middle" x="2183" y="-580.4" font-family="Noto Sans CJK SC" font-size="12.00">统计决策思想</text>
</g>
<!-- prob1 -->
<g id="node61" class="node">
<title>prob1</title>
<path fill="#fffdf1" stroke="#425466" stroke-width="1.1" d="M2264.5,-531C2264.5,-531 2101.5,-531 2101.5,-531 2095.5,-531 2089.5,-525 2089.5,-519 2089.5,-519 2089.5,-492 2089.5,-492 2089.5,-486 2095.5,-480 2101.5,-480 2101.5,-480 2264.5,-480 2264.5,-480 2270.5,-480 2276.5,-486 2276.5,-492 2276.5,-492 2276.5,-519 2276.5,-519 2276.5,-525 2270.5,-531 2264.5,-531"/>
<text text-anchor="middle" x="2183" y="-515.4" font-family="Noto Sans CJK SC" font-size="12.00">概率基础</text>
<text text-anchor="middle" x="2183" y="-502.4" font-family="Noto Sans CJK SC" font-size="12.00">古典概率、几何概率、随机模拟</text>
<text text-anchor="middle" x="2183" y="-489.4" font-family="Noto Sans CJK SC" font-size="12.00">互斥事件、对立事件</text>
</g>
<!-- prob2 -->
<g id="node62" class="node">
<title>prob2</title>
<path fill="#fffdf1" stroke="#425466" stroke-width="1.1" d="M2260.5,-440C2260.5,-440 2103.5,-440 2103.5,-440 2097.5,-440 2091.5,-434 2091.5,-428 2091.5,-428 2091.5,-401 2091.5,-401 2091.5,-395 2097.5,-389 2103.5,-389 2103.5,-389 2260.5,-389 2260.5,-389 2266.5,-389 2272.5,-395 2272.5,-401 2272.5,-401 2272.5,-428 2272.5,-428 2272.5,-434 2266.5,-440 2260.5,-440"/>
<text text-anchor="middle" x="2182" y="-424.4" font-family="Noto Sans CJK SC" font-size="12.00">概率公式</text>
<text text-anchor="middle" x="2182" y="-411.4" font-family="Noto Sans CJK SC" font-size="12.00">P(Ā) = 1 − P(A)</text>
<text text-anchor="middle" x="2182" y="-398.4" font-family="Noto Sans CJK SC" font-size="12.00">P(A∪B) = P(A) + P(B)（互斥）</text>
</g>
<!-- prob3 -->
<g id="node63" class="node">
<title>prob3</title>
<path fill="#fffdf1" stroke="#425466" stroke-width="1.1" d="M2234.5,-342.5C2234.5,-342.5 2129.5,-342.5 2129.5,-342.5 2123.5,-342.5 2117.5,-336.5 2117.5,-330.5 2117.5,-330.5 2117.5,-303.5 2117.5,-303.5 2117.5,-297.5 2123.5,-291.5 2129.5,-291.5 2129.5,-291.5 2234.5,-291.5 2234.5,-291.5 2240.5,-291.5 2246.5,-297.5 2246.5,-303.5 2246.5,-303.5 2246.5,-330.5 2246.5,-330.5 2246.5,-336.5 2240.5,-342.5 2234.5,-342.5"/>
<text text-anchor="middle" x="2182" y="-326.9" font-family="Noto Sans CJK SC" font-size="12.00">条件概率与独立性</text>
<text text-anchor="middle" x="2182" y="-313.9" font-family="Noto Sans CJK SC" font-size="12.00">P(B|A) = P(AB) / P(A)</text>
<text text-anchor="middle" x="2182" y="-300.9" font-family="Noto Sans CJK SC" font-size="12.00">P(AB) = P(A)P(B)</text>
</g>
<!-- rv1 -->
<g id="node64" class="node">
<title>rv1</title>
<path fill="#fffdf1" stroke="#425466" stroke-width="1.1" d="M2269.5,-238.5C2269.5,-238.5 2094.5,-238.5 2094.5,-238.5 2088.5,-238.5 2082.5,-232.5 2082.5,-226.5 2082.5,-226.5 2082.5,-212.5 2082.5,-212.5 2082.5,-206.5 2088.5,-200.5 2094.5,-200.5 2094.5,-200.5 2269.5,-200.5 2269.5,-200.5 2275.5,-200.5 2281.5,-206.5 2281.5,-212.5 2281.5,-212.5 2281.5,-226.5 2281.5,-226.5 2281.5,-232.5 2275.5,-238.5 2269.5,-238.5"/>
<text text-anchor="middle" x="2182" y="-222.9" font-family="Noto Sans CJK SC" font-size="12.00">随机变量与分布</text>
<text text-anchor="middle" x="2182" y="-209.9" font-family="Noto Sans CJK SC" font-size="12.00">两点分布、二项分布、超几何分布</text>
</g>
<!-- rv2 -->
<g id="node65" class="node">
<title>rv2</title>
<path fill="#fffdf1" stroke="#425466" stroke-width="1.1" d="M2283.5,-154C2283.5,-154 2080.5,-154 2080.5,-154 2074.5,-154 2068.5,-148 2068.5,-142 2068.5,-142 2068.5,-115 2068.5,-115 2068.5,-109 2074.5,-103 2080.5,-103 2080.5,-103 2283.5,-103 2283.5,-103 2289.5,-103 2295.5,-109 2295.5,-115 2295.5,-115 2295.5,-142 2295.5,-142 2295.5,-148 2289.5,-154 2283.5,-154"/>
<text text-anchor="middle" x="2182" y="-138.4" font-family="Noto Sans CJK SC" font-size="12.00">期望与方差</text>
<text text-anchor="middle" x="2182" y="-125.4" font-family="Noto Sans CJK SC" font-size="12.00">E(X), D(X)</text>
<text text-anchor="middle" x="2182" y="-112.4" font-family="Noto Sans CJK SC" font-size="12.00">Y = aX + b：E(Y)=aE(X)+b，D(Y)=a²D(X)</text>
</g>
<!-- m0 -->
<g id="node66" class="node">
<title>m0</title>
<path fill="#e9e0ff" stroke="#7e57c2" stroke-width="1.6" d="M2607.5,-984C2607.5,-984 2402.5,-984 2402.5,-984 2396.5,-984 2390.5,-978 2390.5,-972 2390.5,-972 2390.5,-960 2390.5,-960 2390.5,-954 2396.5,-948 2402.5,-948 2402.5,-948 2607.5,-948 2607.5,-948 2613.5,-948 2619.5,-954 2619.5,-960 2619.5,-960 2619.5,-972 2619.5,-972 2619.5,-978 2613.5,-984 2607.5,-984"/>
<text text-anchor="middle" x="2505" y="-962.5" font-family="Noto Sans CJK SC" font-size="15.00">计数、逻辑、证明、算法与复数</text>
</g>
<!-- count1 -->
<g id="node67" class="node">
<title>count1</title>
<path fill="#faf7ff" stroke="#425466" stroke-width="1.1" d="M2407.5,-901.5C2407.5,-901.5 2340.5,-901.5 2340.5,-901.5 2334.5,-901.5 2328.5,-895.5 2328.5,-889.5 2328.5,-889.5 2328.5,-862.5 2328.5,-862.5 2328.5,-856.5 2334.5,-850.5 2340.5,-850.5 2340.5,-850.5 2407.5,-850.5 2407.5,-850.5 2413.5,-850.5 2419.5,-856.5 2419.5,-862.5 2419.5,-862.5 2419.5,-889.5 2419.5,-889.5 2419.5,-895.5 2413.5,-901.5 2407.5,-901.5"/>
<text text-anchor="middle" x="2374" y="-885.9" font-family="Noto Sans CJK SC" font-size="12.00">计算原理</text>
<text text-anchor="middle" x="2374" y="-872.9" font-family="Noto Sans CJK SC" font-size="12.00">分类加法原理</text>
<text text-anchor="middle" x="2374" y="-859.9" font-family="Noto Sans CJK SC" font-size="12.00">分步乘法原理</text>
</g>
<!-- count2 -->
<g id="node68" class="node">
<title>count2</title>
<path fill="#faf7ff" stroke="#425466" stroke-width="1.1" d="M2472.5,-804C2472.5,-804 2341.5,-804 2341.5,-804 2335.5,-804 2329.5,-798 2329.5,-792 2329.5,-792 2329.5,-765 2329.5,-765 2329.5,-759 2335.5,-753 2341.5,-753 2341.5,-753 2472.5,-753 2472.5,-753 2478.5,-753 2484.5,-759 2484.5,-765 2484.5,-765 2484.5,-792 2484.5,-792 2484.5,-798 2478.5,-804 2472.5,-804"/>
<text text-anchor="middle" x="2407" y="-788.4" font-family="Noto Sans CJK SC" font-size="12.00">排列与组合</text>
<text text-anchor="middle" x="2407" y="-775.4" font-family="Noto Sans CJK SC" font-size="12.00">A(n,m) = n! / (n − m)!</text>
<text text-anchor="middle" x="2407" y="-762.4" font-family="Noto Sans CJK SC" font-size="12.00">C(n,m) = n! / (m!(n − m)!)</text>
</g>
<!-- bin1 -->
<g id="node69" class="node">
<title>bin1</title>
<path fill="#faf7ff" stroke="#425466" stroke-width="1.1" d="M2448,-713C2448,-713 2366,-713 2366,-713 2360,-713 2354,-707 2354,-701 2354,-701 2354,-674 2354,-674 2354,-668 2360,-662 2366,-662 2366,-662 2448,-662 2448,-662 2454,-662 2460,-668 2460,-674 2460,-674 2460,-701 2460,-701 2460,-707 2454,-713 2448,-713"/>
<text text-anchor="middle" x="2407" y="-697.4" font-family="Noto Sans CJK SC" font-size="12.00">二项式定理</text>
<text text-anchor="middle" x="2407" y="-684.4" font-family="Noto Sans CJK SC" font-size="12.00">(a + b)^n 的展开</text>
<text text-anchor="middle" x="2407" y="-671.4" font-family="Noto Sans CJK SC" font-size="12.00">通项与系数</text>
</g>
<!-- bin2 -->
<g id="node70" class="node">
<title>bin2</title>
<path fill="#faf7ff" stroke="#425466" stroke-width="1.1" d="M2474.5,-615.5C2474.5,-615.5 2339.5,-615.5 2339.5,-615.5 2333.5,-615.5 2327.5,-609.5 2327.5,-603.5 2327.5,-603.5 2327.5,-589.5 2327.5,-589.5 2327.5,-583.5 2333.5,-577.5 2339.5,-577.5 2339.5,-577.5 2474.5,-577.5 2474.5,-577.5 2480.5,-577.5 2486.5,-583.5 2486.5,-589.5 2486.5,-589.5 2486.5,-603.5 2486.5,-603.5 2486.5,-609.5 2480.5,-615.5 2474.5,-615.5"/>
<text text-anchor="middle" x="2407" y="-599.9" font-family="Noto Sans CJK SC" font-size="12.00">通项公式</text>
<text text-anchor="middle" x="2407" y="-586.9" font-family="Noto Sans CJK SC" font-size="12.00">T(r+1) = C(n,r) a^(n−r) b^r</text>
</g>
<!-- bin3 -->
<g id="node71" class="node">
<title>bin3</title>
<path fill="#faf7ff" stroke="#425466" stroke-width="1.1" d="M2691.5,-622C2691.5,-622 2520.5,-622 2520.5,-622 2514.5,-622 2508.5,-616 2508.5,-610 2508.5,-610 2508.5,-583 2508.5,-583 2508.5,-577 2514.5,-571 2520.5,-571 2520.5,-571 2691.5,-571 2691.5,-571 2697.5,-571 2703.5,-577 2703.5,-583 2703.5,-583 2703.5,-610 2703.5,-610 2703.5,-616 2697.5,-622 2691.5,-622"/>
<text text-anchor="middle" x="2606" y="-606.4" font-family="Noto Sans CJK SC" font-size="12.00">二项式系数性质</text>
<text text-anchor="middle" x="2606" y="-593.4" font-family="Noto Sans CJK SC" font-size="12.00">等距离系数相等</text>
<text text-anchor="middle" x="2606" y="-580.4" font-family="Noto Sans CJK SC" font-size="12.00">ΣC(n,k)=2^n，奇偶项和=2^(n−1)</text>
</g>
<!-- logic1 -->
<g id="node72" class="node">
<title>logic1</title>
<path fill="#faf7ff" stroke="#425466" stroke-width="1.1" d="M2998.5,-901.5C2998.5,-901.5 2835.5,-901.5 2835.5,-901.5 2829.5,-901.5 2823.5,-895.5 2823.5,-889.5 2823.5,-889.5 2823.5,-862.5 2823.5,-862.5 2823.5,-856.5 2829.5,-850.5 2835.5,-850.5 2835.5,-850.5 2998.5,-850.5 2998.5,-850.5 3004.5,-850.5 3010.5,-856.5 3010.5,-862.5 3010.5,-862.5 3010.5,-889.5 3010.5,-889.5 3010.5,-895.5 3004.5,-901.5 2998.5,-901.5"/>
<text text-anchor="middle" x="2917" y="-885.9" font-family="Noto Sans CJK SC" font-size="12.00">命题与逻辑</text>
<text text-anchor="middle" x="2917" y="-872.9" font-family="Noto Sans CJK SC" font-size="12.00">原命题、逆、否、逆否</text>
<text text-anchor="middle" x="2917" y="-859.9" font-family="Noto Sans CJK SC" font-size="12.00">充分条件、必要条件、充要条件</text>
</g>
<!-- logic2 -->
<g id="node73" class="node">
<title>logic2</title>
<path fill="#faf7ff" stroke="#425466" stroke-width="1.1" d="M2979.5,-804C2979.5,-804 2876.5,-804 2876.5,-804 2870.5,-804 2864.5,-798 2864.5,-792 2864.5,-792 2864.5,-765 2864.5,-765 2864.5,-759 2870.5,-753 2876.5,-753 2876.5,-753 2979.5,-753 2979.5,-753 2985.5,-753 2991.5,-759 2991.5,-765 2991.5,-765 2991.5,-792 2991.5,-792 2991.5,-798 2985.5,-804 2979.5,-804"/>
<text text-anchor="middle" x="2928" y="-788.4" font-family="Noto Sans CJK SC" font-size="12.00">复合命题与量词</text>
<text text-anchor="middle" x="2928" y="-775.4" font-family="Noto Sans CJK SC" font-size="12.00">且 / 或 / 非</text>
<text text-anchor="middle" x="2928" y="-762.4" font-family="Noto Sans CJK SC" font-size="12.00">全称量词、存在量词</text>
</g>
<!-- proof1 -->
<g id="node74" class="node">
<title>proof1</title>
<path fill="#faf7ff" stroke="#425466" stroke-width="1.1" d="M2954.5,-713C2954.5,-713 2803.5,-713 2803.5,-713 2797.5,-713 2791.5,-707 2791.5,-701 2791.5,-701 2791.5,-674 2791.5,-674 2791.5,-668 2797.5,-662 2803.5,-662 2803.5,-662 2954.5,-662 2954.5,-662 2960.5,-662 2966.5,-668 2966.5,-674 2966.5,-674 2966.5,-701 2966.5,-701 2966.5,-707 2960.5,-713 2954.5,-713"/>
<text text-anchor="middle" x="2879" y="-697.4" font-family="Noto Sans CJK SC" font-size="12.00">推理</text>
<text text-anchor="middle" x="2879" y="-684.4" font-family="Noto Sans CJK SC" font-size="12.00">合情推理：归纳、类比、猜想</text>
<text text-anchor="middle" x="2879" y="-671.4" font-family="Noto Sans CJK SC" font-size="12.00">演绎推理：三段论</text>
</g>
<!-- proof2 -->
<g id="node75" class="node">
<title>proof2</title>
<path fill="#faf7ff" stroke="#425466" stroke-width="1.1" d="M2927.5,-245C2927.5,-245 2788.5,-245 2788.5,-245 2782.5,-245 2776.5,-239 2776.5,-233 2776.5,-233 2776.5,-206 2776.5,-206 2776.5,-200 2782.5,-194 2788.5,-194 2788.5,-194 2927.5,-194 2927.5,-194 2933.5,-194 2939.5,-200 2939.5,-206 2939.5,-206 2939.5,-233 2939.5,-233 2939.5,-239 2933.5,-245 2927.5,-245"/>
<text text-anchor="middle" x="2858" y="-229.4" font-family="Noto Sans CJK SC" font-size="12.00">证明方法</text>
<text text-anchor="middle" x="2858" y="-216.4" font-family="Noto Sans CJK SC" font-size="12.00">直接证明、综合法、分析法</text>
<text text-anchor="middle" x="2858" y="-203.4" font-family="Noto Sans CJK SC" font-size="12.00">反证法、数学归纳法</text>
</g>
<!-- alg1 -->
<g id="node76" class="node">
<title>alg1</title>
<path fill="#faf7ff" stroke="#425466" stroke-width="1.1" d="M2789.5,-895C2789.5,-895 2602.5,-895 2602.5,-895 2596.5,-895 2590.5,-889 2590.5,-883 2590.5,-883 2590.5,-869 2590.5,-869 2590.5,-863 2596.5,-857 2602.5,-857 2602.5,-857 2789.5,-857 2789.5,-857 2795.5,-857 2801.5,-863 2801.5,-869 2801.5,-869 2801.5,-883 2801.5,-883 2801.5,-889 2795.5,-895 2789.5,-895"/>
<text text-anchor="middle" x="2696" y="-879.4" font-family="Noto Sans CJK SC" font-size="12.00">算法初步</text>
<text text-anchor="middle" x="2696" y="-866.4" font-family="Noto Sans CJK SC" font-size="12.00">算法特征：有穷性、逻辑性、普遍性</text>
</g>
<!-- alg2 -->
<g id="node77" class="node">
<title>alg2</title>
<path fill="#faf7ff" stroke="#425466" stroke-width="1.1" d="M2830.5,-797.5C2830.5,-797.5 2667.5,-797.5 2667.5,-797.5 2661.5,-797.5 2655.5,-791.5 2655.5,-785.5 2655.5,-785.5 2655.5,-771.5 2655.5,-771.5 2655.5,-765.5 2661.5,-759.5 2667.5,-759.5 2667.5,-759.5 2830.5,-759.5 2830.5,-759.5 2836.5,-759.5 2842.5,-765.5 2842.5,-771.5 2842.5,-771.5 2842.5,-785.5 2842.5,-785.5 2842.5,-791.5 2836.5,-797.5 2830.5,-797.5"/>
<text text-anchor="middle" x="2749" y="-781.9" font-family="Noto Sans CJK SC" font-size="12.00">程序框图</text>
<text text-anchor="middle" x="2749" y="-768.9" font-family="Noto Sans CJK SC" font-size="12.00">顺序结构、条件结构、循环结构</text>
</g>
<!-- cx1 -->
<g id="node78" class="node">
<title>cx1</title>
<path fill="#faf7ff" stroke="#425466" stroke-width="1.1" d="M2556.5,-901.5C2556.5,-901.5 2453.5,-901.5 2453.5,-901.5 2447.5,-901.5 2441.5,-895.5 2441.5,-889.5 2441.5,-889.5 2441.5,-862.5 2441.5,-862.5 2441.5,-856.5 2447.5,-850.5 2453.5,-850.5 2453.5,-850.5 2556.5,-850.5 2556.5,-850.5 2562.5,-850.5 2568.5,-856.5 2568.5,-862.5 2568.5,-862.5 2568.5,-889.5 2568.5,-889.5 2568.5,-895.5 2562.5,-901.5 2556.5,-901.5"/>
<text text-anchor="middle" x="2505" y="-885.9" font-family="Noto Sans CJK SC" font-size="12.00">复数</text>
<text text-anchor="middle" x="2505" y="-872.9" font-family="Noto Sans CJK SC" font-size="12.00">虚数单位 i</text>
<text text-anchor="middle" x="2505" y="-859.9" font-family="Noto Sans CJK SC" font-size="12.00">代数表示与几何表示</text>
</g>
<!-- cx2 -->
<g id="node79" class="node">
<title>cx2</title>
<path fill="#faf7ff" stroke="#425466" stroke-width="1.1" d="M2610.5,-154C2610.5,-154 2507.5,-154 2507.5,-154 2501.5,-154 2495.5,-148 2495.5,-142 2495.5,-142 2495.5,-115 2495.5,-115 2495.5,-109 2501.5,-103 2507.5,-103 2507.5,-103 2610.5,-103 2610.5,-103 2616.5,-103 2622.5,-109 2622.5,-115 2622.5,-115 2622.5,-142 2622.5,-142 2622.5,-148 2616.5,-154 2610.5,-154"/>
<text text-anchor="middle" x="2559" y="-138.4" font-family="Noto Sans CJK SC" font-size="12.00">复数运算</text>
<text text-anchor="middle" x="2559" y="-125.4" font-family="Noto Sans CJK SC" font-size="12.00">加减乘除、共轭、模</text>
<text text-anchor="middle" x="2559" y="-112.4" font-family="Noto Sans CJK SC" font-size="12.00">复平面中的点与向量</text>
</g>
</g>
</svg>
